<?xml version="1.0" encoding="UTF-8" standalone="no"?>
<!-- Created with Inkscape (http://www.inkscape.org/) -->

<svg
   xmlns:dc="http://purl.org/dc/elements/1.1/"
   xmlns:cc="http://creativecommons.org/ns#"
   xmlns:rdf="http://www.w3.org/1999/02/22-rdf-syntax-ns#"
   xmlns:svg="http://www.w3.org/2000/svg"
   xmlns="http://www.w3.org/2000/svg"
   xmlns:sodipodi="http://sodipodi.sourceforge.net/DTD/sodipodi-0.dtd"
   xmlns:inkscape="http://www.inkscape.org/namespaces/inkscape"
   width="2076.9604"
   height="861.52625"
   id="svg2"
   version="1.1"
   inkscape:version="0.48.4 r9939"
   sodipodi:docname="dp.svg">
  <sodipodi:namedview
     id="base"
     pagecolor="#ffffff"
     bordercolor="#666666"
     borderopacity="1.0"
     inkscape:pageopacity="0.0"
     inkscape:pageshadow="2"
     inkscape:zoom="0.49497475"
     inkscape:cx="1173.2734"
     inkscape:cy="245.75732"
     inkscape:document-units="px"
     inkscape:current-layer="layer1"
     showgrid="false"
     inkscape:window-width="1680"
     inkscape:window-height="1000"
     inkscape:window-x="0"
     inkscape:window-y="25"
     inkscape:window-maximized="1"
     fit-margin-top="0"
     fit-margin-left="0"
     fit-margin-right="0"
     fit-margin-bottom="0" />
  <defs
     id="defs4">
    <marker
       style="overflow:visible"
       id="Arrow1Lend"
       refX="0"
       refY="0"
       orient="auto"
       inkscape:stockid="Arrow1Lend">
      <path
         inkscape:connector-curvature="0"
         transform="matrix(-0.8,0,0,-0.8,-10,0)"
         style="fill-rule:evenodd;stroke:#000000;stroke-width:1pt"
         d="M 0,0 5,-5 -12.5,0 5,5 0,0 z"
         id="path3820" />
    </marker>
    <marker
       style="overflow:visible"
       id="Arrow2Lend"
       refX="0"
       refY="0"
       orient="auto"
       inkscape:stockid="Arrow2Lend">
      <path
         inkscape:connector-curvature="0"
         transform="matrix(-1.1,0,0,-1.1,-1.1,0)"
         d="M 8.7185878,4.0337352 -2.2072895,0.01601326 8.7185884,-4.0017078 c -1.7454984,2.3720609 -1.7354408,5.6174519 -6e-7,8.035443 z"
         style="font-size:12px;fill-rule:evenodd;stroke-width:0.625;stroke-linejoin:round"
         id="path3891" />
    </marker>
    <clipPath
       id="clipPath2998"
       clipPathUnits="userSpaceOnUse">
      <rect
         ry="0"
         rx="0"
         y="-70.494965"
         x="-445.71429"
         height="141.42857"
         width="1530"
         id="rect3000"
         style="opacity:0;fill:#e6e6e6;fill-opacity:1;stroke:none" />
    </clipPath>
  </defs>
  <metadata
     id="metadata7">
    <rdf:RDF>
      <cc:Work
         rdf:about="">
        <dc:format>image/svg+xml</dc:format>
        <dc:type
           rdf:resource="http://purl.org/dc/dcmitype/StillImage" />
        <dc:title />
      </cc:Work>
    </rdf:RDF>
  </metadata>
  <g
     transform="translate(1781.5273,-210.86617)"
     id="layer1"
     inkscape:groupmode="layer"
     inkscape:label="Layer 1">
    <rect
       style="fill:none;stroke:#ff0000;stroke-width:3;stroke-miterlimit:4;stroke-opacity:1;stroke-dasharray:none;stroke-dashoffset:0"
       id="rect6395"
       width="43.317928"
       height="537.05786"
       x="-258.20648"
       y="212.36617" />
    <path
       inkscape:connector-curvature="0"
       id="path3070"
       d="m -578.69941,219.46483 0,69.28261 0,75.95427 -1.5,2.85928 -1.5,2.9326 0,-3.22586 -0.0312,-3.22586 -0.90625,3.37249 -0.90625,3.37249 -1.40625,-2.71266 -1.4375,-2.78596 -0.65625,1.53961 -0.65625,1.53962 0,-2.85929 0,-2.85928 -1,1.39298 -1,1.4663 0,-2.34607 0,-2.27277 -2,-1.53961 -2,-1.4663 -0.0312,-3.959 -0.0312,-3.95901 -1.53125,6.67166 -1.53125,6.59834 -1.4375,-1.24636 -1.4375,-1.31967 0,2.27277 0,2.19945 -2.28125,1.39299 -2.28125,1.31966 -2.75,-2.49271 -2.78125,-2.41939 -1.40625,-7.62475 -1.40625,-7.69807 -0.125,8.21127 -0.0937,8.21127 -1.09375,-5.27867 -1.0625,-5.27867 -1.375,0 -1.34375,0 -0.0937,6.45171 -0.125,6.45171 -0.46875,-4.17895 -0.46875,-4.25227 -1.875,5.05873 -1.90625,5.13205 -1.53125,-1.39299 -1.53125,-1.39298 0,2.4194 0,2.34607 -2.46875,-4.17895 -2.46876,-4.25226 -0.0312,-2.9326 -0.0312,-2.9326 -1.90625,2.78597 -1.9375,2.85928 -2.5,-2.63934 -2.46875,-2.71265 -0.59375,3.66575 -0.59375,3.59243 -1.5,-1.31967 -1.5,-1.39299 0,3.44581 0,3.4458 -0.75,0 c -0.4177,0 -1.31304,-2.11147 -2,-4.69215 -0.68696,-2.58069 -1.68389,-4.69216 -2.21875,-4.69216 l -0.96875,0 -0.65625,6.08514 -0.65625,6.15845 -0.84375,-3.22586 -0.875,-3.15254 0,2.05283 -0.0312,2.05281 -1.5625,-3.07922 c -0.87088,-1.69568 -2.4851,-3.18622 -3.5625,-3.37249 l -1.9375,-0.36658 -0.53125,1.97951 -0.53125,1.9795 -0.9375,-1.31967 -0.9375,-1.39299 -0.625,3.8857 -0.65625,3.88569 -0.84375,-3.15255 -0.84375,-3.15254 -0.15625,-11.73039 -0.15625,-11.73039 -0.6875,8.21128 c -0.38371,4.5162 -1.046,10.5561 -1.46875,13.41663 l -0.78125,5.20536 -2.0625,1.53961 -2.09375,1.61293 -3.15625,-8.13795 -3.1875,-8.13796 -1.09375,3.73906 -1.0625,3.66575 -1.0625,-3.51912 -1.03125,-3.51912 0,2.05282 -0.0312,2.05282 -1.3125,-2.56602 -1.3125,-2.56603 -1.1875,2.78597 c -0.64692,1.51773 -1.1875,3.95925 -1.1875,5.49862 l 0,2.85928 -1.46875,1.31968 -1.46875,1.31966 -0.90625,-3.81237 -0.90625,-3.81238 -1.15625,5.13204 -1.1875,5.13205 -1.4375,-3.4458 c -0.7987,-1.87382 -1.46875,-4.14107 -1.46875,-5.05874 0,-1.84047 -3.10795,-7.87308 -4.125,-7.99132 -0.35288,-0.0411 -0.93615,2.56602 -1.28125,5.79188 l -0.625,5.86519 -0.90625,0 -0.90625,0 -0.4375,-5.27867 -0.4375,-5.27868 -0.125,7.55144 -0.15625,7.47812 -0.90625,1.31967 -0.90625,1.31967 -1,-6.45171 -1.03125,-6.52503 -0.0625,4.10563 -0.0937,4.10564 -1.03125,0 -1,0 -0.59375,-6.96492 -0.59375,-6.96492 -1.8125,2.27277 -1.8125,2.27276 -0.4375,-5.27867 -0.4375,-5.27868 -0.125,5.13204 -0.15625,5.05873 -3.0625,-1.17303 -3.0625,-1.09973 -1.9375,5.20536 -1.9375,5.20536 0,-3.29917 -0.0312,-3.29917 -0.71875,2.71265 c -0.40408,1.48397 -1.65,3.06757 -2.75,3.51912 l -2,0.80646 -0.3125,-6.74497 -0.34375,-6.74497 -2.375,9.09104 -2.40625,9.09106 -0.0312,-4.25227 -0.0312,-4.25227 -1.40625,-3.29917 -1.375,-3.29917 -0.59375,3.59244 -0.59375,3.66574 -1.0625,-1.53961 -1.0625,-1.53962 -1.4375,2.85928 -1.46875,2.78597 -0.125,-6.74497 -0.125,-6.74498 -0.4375,5.27868 -0.4375,5.27868 -1.34375,0 c -0.74177,0 -2.06752,0.68306 -2.9375,1.46629 l -1.59375,1.39299 0,-6.08514 0,-6.15845 -0.78125,0 c -0.44,0 -1.37957,1.33048 -2.0625,2.93259 l -1.21875,2.9326 -0.71875,-2.34608 c -0.3896,-1.27955 -1.39933,-2.29622 -2.25,-2.27276 l -1.5625,0.0732 -2.84375,5.20536 c -3.06294,5.65244 -3.56108,5.97995 -5.96875,3.81238 l -1.59375,-1.39298 0,-3.29917 0,-3.29918 -1,0 -1,0 0,-4.10563 -0.0312,-4.10564 -0.96875,3.51912 -0.96875,3.51912 0,6.59834 -0.0312,6.59834 -1,-1.46629 -1,-1.39299 0,2.56602 0,2.63934 -1,-1.4663 -1,-1.39298 -0.0625,-5.13204 -0.0625,-5.20536 -0.875,4.69215 -0.84375,4.69216 -0.0625,-4.03233 -0.0937,-4.03232 -1.5,1.39299 -1.5,1.31966 -0.0312,-5.49861 -0.0625,-5.57194 -1.375,7.03824 -1.375,7.03823 -0.0937,-3.51912 -0.0937,-3.51911 -0.90625,3.37248 c -0.4976,1.8447 -1.59977,3.58647 -2.46875,3.88569 l -1.59375,0.58652 0,-2.71265 -0.0312,-2.78597 -0.96875,3.51912 -0.96875,3.51912 0,-2.9326 -0.0312,-2.9326 -1.5,0 -1.5,0 0,-2.9326 -0.0312,-2.93259 -0.71875,2.34608 c -0.40408,1.29034 -1.7625,2.62521 -3,2.93259 l -2.25,0.58652 0,-3.22586 c 0,-1.7623 -0.62049,-4.4819 -1.40625,-6.01182 l -1.4375,-2.78597 -0.84375,9.97083 -0.84375,9.89752 -1.28125,1.02641 -1.25,1.02641 -3.375,-8.3579 -3.375,-8.43122 -0.59375,3.73906 -0.59375,3.73906 -1.5,-2.9326 -1.5,-2.85928 0,1.68625 0,1.75955 -1.34375,-2.56602 -1.34375,-2.63934 -0.65625,1.53962 c -0.36189,0.84904 -0.65625,3.49954 -0.65625,5.86519 l 0,4.25226 -2.40625,0 -2.40625,0 -0.4375,-2.85928 -0.40625,-2.93259 -1.21875,5.27867 -1.21875,5.35199 -1.4375,-3.4458 c -0.7987,-1.87381 -1.46875,-4.27988 -1.46875,-5.35199 0,-1.07214 -0.9,-3.22712 -2,-4.83879 l -2,-2.9326 0,2.49272 c 0,2.55621 -2.41415,9.23767 -3.34375,9.23767 -0.27603,0 -0.69914,-2.3754 -0.9375,-5.27867 l -0.4375,-5.27867 -0.125,7.25817 -0.15625,7.25818 -1.5,0 -1.5,0 -0.0937,-4.9121 -0.125,-4.9121 -0.46875,4.10564 -0.4375,4.10563 -1.4375,-3.29917 -1.4375,-3.37249 0,-3.81237 0,-3.81238 -0.90625,1.31967 -0.9375,1.31967 -0.40625,-5.27868 -0.40625,-5.35198 -1.09375,5.86519 -1.125,5.8652 -0.1875,-8.21128 -0.1875,-8.21127 -0.4375,5.27868 -0.4375,5.27867 -0.9375,0 -0.9375,0 0,3.4458 0,3.4458 -1.53125,-1.31967 -1.53125,-1.39298 -1.96875,5.35199 -1.96875,5.27868 0,-3.29917 -0.0312,-3.29918 -0.71875,2.71266 c -0.40408,1.48396 -1.63658,3.06756 -2.71875,3.51911 l -1.96875,0.80647 -0.5625,-7.03824 -0.5625,-7.03823 -1.15625,7.62475 c -1.41399,9.28043 -1.78503,9.40024 -3.6875,1.17304 l -1.5,-6.45171 -0.0625,5.86519 -0.0625,5.8652 -0.71875,-2.4194 c -0.85798,-2.83145 -2.24609,-2.90602 -4,-0.29326 l -1.25,1.83288 -0.0312,-6.59835 -0.0312,-6.59834 -1.09375,4.69216 c -0.61439,2.58068 -1.2486,5.04599 -1.375,5.4253 -0.12641,0.37933 -1.40126,1.14589 -2.84375,1.75955 l -2.625,1.17305 0,-6.52503 -0.0312,-6.52503 -0.71875,2.34608 c -0.40408,1.29034 -1.5375,2.70007 -2.5,3.07922 l -1.75,0.65984 0,-2.05282 0,-2.05282 -2.0625,0.36658 -2.0625,0.36657 -2.1875,5.79188 c -2.27325,6.01053 -3.01042,6.39649 -5.9375,3.37248 l -1.75,-1.75955 0,-3.29917 0,-3.29918 -0.90625,0 -0.9375,0 -0.46878,-4.10563 -0.4375,-4.10564 -0.125,8.28459 -0.125,8.21127 -1.875,2.78597 -1.9062,2.78597 -0.5938,-1.4663 c -0.3342,-0.7843 -0.617,-3.61686 -0.625,-6.30509 l -0.031,-4.91209 -0.9687,3.51911 -0.9688,3.51912 0,-2.85928 -0.031,-2.85929 -1.4062,1.31967 -1.4375,1.24635 -0.4375,-5.4253 -0.4375,-5.49862 -0.1563,9.38431 -0.1875,9.38431 -1.4375,-5.86519 -1.4062,-5.86519 -0.062,3.07922 -0.031,3.07923 -3.75,-1.39299 -3.75,-1.39298 -0.3125,-2.27277 -0.3438,-2.27276 -1.1562,1.68625 c -0.6309,0.91471 -1.9806,1.80331 -3,1.9795 l -1.8438,0.29326 -0.9687,-5.93851 -0.9688,-5.93851 -1.4375,6.59835 c -0.7994,3.61512 -1.4687,8.09586 -1.4687,9.97083 l 0,3.4458 -2.25,-1.68624 c -1.2375,-0.90606 -2.5647,-2.81326 -2.9688,-4.25227 l -0.75,-2.63934 0,4.10564 -0.031,4.10563 -1,0 -1,0 0,-3.22585 0,-3.29918 -1.375,-1.24635 -1.375,-1.24635 -1.0937,2.63934 -1.125,2.56601 -0.625,-7.47812 c -0.3529,-4.13981 -1.0523,-8.1033 -1.5313,-8.79779 l -0.875,-1.24635 0,6.01182 0,5.93851 -2.0937,4.98542 -2.125,4.98541 -0.875,-3.22585 -0.875,-3.22586 0,4.10564 -0.031,4.10563 -1.3125,0 c -0.7213,0 -2.2298,-2.04254 -3.375,-4.54552 l -2.0938,-4.54553 -0.5937,1.4663 -0.625,1.39298 0,-2.85928 0,-2.9326 -2,1.4663 -2,1.53961 0,-4.83878 0,-4.9121 -1,0 -1,0 0,2.9326 -0.031,2.9326 -0.9688,-3.51913 -0.9687,-3.51911 -0.031,4.69216 -0.062,4.69215 -1.3125,-5.57193 -1.3438,-5.57194 -0.6875,6.59834 -0.7187,6.67166 -0.875,-3.29917 -0.875,-3.37249 -0.6563,3.8857 -0.625,3.88569 -1.4062,-1.24636 -1.4375,-1.24635 -0.062,-3.88569 -0.062,-3.88569 -0.875,4.69216 -0.8438,4.69215 -0.1562,-8.21128 -0.125,-8.21126 -0.8438,4.69215 c -0.4668,2.58069 -1.142,6.80363 -1.5,9.38431 l -0.6562,4.69216 -1.0625,-4.3989 -1.0625,-4.47221 -1.75,5.42531 -1.75,5.4253 -0.6875,-5.05873 -0.6875,-5.13205 -0.9375,0 c -0.5129,0 -0.9373,1.0598 -0.9375,2.27276 l 0,2.19946 -2.5313,-0.51321 -2.5312,-0.43989 -0.8438,-3.07923 -0.8125,-3.15254 -0.625,5.49862 -0.6562,5.42531 -0.9688,-3.51912 -1,-3.51911 0,2.78596 -0.031,2.78597 -3.125,-0.21983 -3.125,-0.21983 -0.4687,-4.17895 -0.5,-4.25226 -1.375,3.22586 c -0.766,1.79711 -1.4063,4.86677 -1.4063,6.81828 0,1.95154 -0.45,4.18794 -1,4.98541 l -1,1.4663 0,-2.85928 0,-2.78597 -1.9062,4.03233 -1.875,4.03232 -0.75,-2.78597 -0.7188,-2.71265 -0.8437,3.15254 -0.875,3.15254 0,-7.40481 -0.031,-7.4048 -1.9375,1.24635 -1.9688,1.17304 -0.625,-6.67166 c -1.0595,-11.21336 -1.2821,-11.77477 -1.4375,-3.22586 l -0.1562,8.21128 -0.7813,-4.69216 -0.7812,-4.69215 -0.7813,5.86519 c -0.7213,5.4803 -3.7504,14.07647 -4.9687,14.07647 -0.298,0 -0.5625,-2.30474 -0.5625,-5.13205 l 0,-5.13204 -1.25,3.88569 -1.25,3.88569 -1.5,-0.73315 c -0.825,-0.40031 -2.7375,-1.50585 -4.25,-2.49271 l -2.75,-1.75956 0,-3.29917 0,-3.29917 -1,0 -1,0 0,3.29917 0,3.22586 -1.5625,3.00591 -1.5938,3.07923 -0.9062,-3.37249 -0.9063,-3.37249 -0.031,3.51912 -0.031,3.51911 -0.9687,-3.51911 -0.9688,-3.51912 0,4.10564 -0.031,4.10564 -1,0 -1,0 0,-4.10564 -0.031,-4.10564 -0.9375,3.51912 -0.9687,3.51911 -0.6563,-7.55143 -0.6562,-7.62475 -0.875,1.31966 -0.875,1.24636 0,5.13204 -0.031,5.13205 -0.9688,-3.51912 -1,-3.51911 -0.9375,3.51911 -0.9687,3.51912 -1.5,-4.69216 -1.5313,-4.69215 -0.031,3.07923 -0.031,3.00591 -1.9062,-2.41939 -1.9375,-2.4194 -1.5,3.51912 c -0.8239,1.93296 -1.9732,3.4458 -2.5625,3.4458 -0.5893,0 -1.0938,0.99448 -1.0938,2.19945 l 0,2.19945 -2.7187,-1.17304 c -1.4954,-0.63619 -3.2488,-2.16573 -3.9063,-3.44581 l -1.1875,-2.34607 -2.8437,0.73315 -2.8438,0.65983 -0.5937,-9.38431 -0.625,-9.38431 -0.125,7.8447 c -0.078,4.27844 -0.6099,9.7849 -1.1875,12.3169 l -1.0625,4.61885 -0.9375,-1.39299 -0.9688,-1.31967 -0.1562,-30.93889 -0.1875,-31.01223 -0.6563,15.24951 -0.6562,15.24951 -0.25,-18.76862 -0.25,-18.76863 -0.5,3.00592 -0.5,2.93259 -0.9063,-1.31967 -0.9375,-1.31967 -0.1875,32.40521 -0.2187,32.33188 -0.5313,-30.49901 -0.5625,-30.49902 -0.5937,8.21128 -0.5625,8.21127 -0.25,-10.55735 -0.2188,-10.55735 -0.875,4.69215 -0.8437,4.69216 -0.062,26.54001 -0.094,26.54 -0.9063,-1.31967 -0.9062,-1.31966 -0.5,2.9326 -0.5313,2.93259 -0.062,-4.17895 -0.094,-4.25227 -1,1.39299 -1,1.46629 0,-3.66574 0,-3.66575 -1.0312,0 -1,0 -0.9375,5.71857 -0.9063,5.64525 -2.3125,1.68624 c -1.269,0.94866 -4.1125,1.85117 -6.3125,1.9795 l -4,0.21983 -0.3125,-5.20536 -0.3125,-5.13205 -1.9375,2.78597 -1.9375,2.85928 0,2.71265 0,2.71266 -1.5312,1.31967 -1.5313,1.39298 -0.5937,-3.66575 -0.625,-3.66574 -0.8438,3.15254 -0.8437,3.07923 -0.062,-5.8652 -0.094,-5.86519 -0.6875,3.51912 -0.6875,3.51911 -1.75,0.73315 -1.75,0.65984 0,-2.56603 0,-2.56602 -0.9688,1.39298 -0.9375,1.39299 -1.9687,-4.61884 -1.9375,-4.54553 -0.5938,1.31967 -0.5937,1.39299 0,-3.29918 -0.031,-3.37249 -0.875,3.29918 -0.875,3.22585 -1.5625,-6.74497 -1.5625,-6.81829 -0.031,6.59834 -0.062,6.59835 -0.9375,-1.31967 -0.9063,-1.39298 -1.4375,4.83878 -1.4375,4.76547 -1.1875,-3.37249 -1.1875,-3.29917 -1.6875,0.73315 c -0.9384,0.42401 -1.9437,0.99484 -2.2187,1.24635 -0.275,0.25151 -0.8375,0.29937 -1.25,0.14664 -0.4125,-0.15273 -0.75,0.76248 -0.75,2.05282 0,1.29034 -0.45,2.34607 -1,2.34607 l -1,0 0,-3.51911 0,-3.51912 -0.9375,0 c -0.5175,0 -1.192,0.95692 -1.5,2.12613 l -0.5625,2.12614 -2,-1.17304 -2,-1.24635 0,3.29917 0,3.29917 -2,0.36657 -2,0.29326 0,-2.27276 0,-2.34608 -1,1.39298 -1,1.4663 0,-2.49271 0,-2.4927 -1.5313,0 -1.5312,0 -0.5938,-3.66575 -0.625,-3.73906 -0.8437,3.15254 -0.8438,3.07923 0,-5.27868 -0.031,-5.27867 -1.5312,0 -1.5625,0 -1.0625,7.18486 -1.0625,7.18487 -1.3125,-1.17305 -1.2813,-1.17303 -0.6562,3.959 -0.6563,3.95901 -1.8437,-5.27868 c -2.1097,-6.06547 -3.0313,-6.63834 -3.0313,-1.9795 l 0,3.29917 -1.5937,1.39299 -1.5625,1.46629 -1,-1.46629 c -0.5389,-0.78141 -1.3672,-3.68048 -1.8438,-6.45172 l -0.875,-5.05873 -0.062,5.42531 -0.062,5.4253 -1,-1.4663 -1,-1.39298 0,1.97951 0,1.9795 -2,0.36657 -2,0.29326 0,-2.78597 -0.031,-2.78596 -0.9687,3.51911 -0.9688,3.51912 0,-4.9121 -0.031,-4.9121 -1.875,-3.95901 -1.875,-4.03232 -0.6562,6.23177 -0.6563,6.15846 -1.375,-2.63935 -1.3437,-2.63933 -0.5313,3.00591 -0.5312,3.00591 -0.062,-4.17895 -0.094,-4.25226 -1,1.39298 -1,1.4663 -0.094,-5.4253 -0.094,-5.42531 -0.8125,5.8652 -0.7813,5.86519 -0.125,-3.15254 -0.094,-3.22586 -1.4062,2.71265 -1.4063,2.71265 -1.5937,-5.27867 -1.5938,-5.35199 0,6.15846 0,6.15845 -1.4375,1.24635 -1.4375,1.31967 -0.4687,-2.78597 -0.5,-2.85928 -0.062,4.54552 -0.094,4.61885 -1.875,-4.83879 c -1.0436,-2.62796 -2.1386,-6.78354 -2.4063,-9.23768 l -0.4687,-4.47221 -0.125,7.91801 -0.125,7.91801 -1.5,-2.93259 -1.5,-2.85928 0,-5.57194 0,-5.64525 -1,0 -1,0 0,3.15254 0,3.07923 -2.3438,4.76547 -2.3437,4.76547 -1.0938,-3.73906 -1.125,-3.81238 -0.6562,5.27868 -0.6563,5.27867 -0.875,-1.31967 -0.9062,-1.24635 -0.094,-6.30508 -0.125,-6.3784 -0.625,6.81829 -0.6563,6.81829 -2.25,0.80646 -2.25,0.80646 0,-2.4927 0,-2.4194 -0.9375,1.31967 -0.9375,1.39298 -1.0312,-4.17895 -1.0313,-4.17895 -0.031,2.9326 -0.031,2.9326 -2,0 -2,0 -0.1562,-11.14387 -0.1563,-11.14387 -0.375,8.21127 c -0.2081,4.5162 -0.6246,9.79487 -0.9375,11.73039 l -0.5937,3.51912 -0.8125,-4.69216 -0.8125,-4.69216 -0.062,5.79189 -0.094,5.71856 -1.4688,-4.54553 c -0.8075,-2.50471 -1.5032,-6.73031 -1.5625,-9.31099 l -0.125,-4.69216 -1.3437,8.21128 -1.3438,8.21127 -0.2812,-29.32598 -0.2813,-29.32597 -0.5937,29.32597 c -0.327,16.12929 -0.6697,28.57556 -0.7813,27.63974 l -0.2187,-1.68625 -2.5,2.19945 -2.5,2.27276 0,-4.76547 0,-4.76547 -1,1.39298 -1,1.4663 0,-3.81238 0,-3.73906 -1,1.39299 -1,1.4663 0,5.57193 0,5.64525 -1,1.39298 -1,1.4663 0,-8.79779 0,-8.79779 -1.4688,4.54553 -1.4687,4.54552 -0.031,-3.37249 -0.031,-3.37248 -1.3438,4.39889 -1.375,4.32559 -1.5625,0.58652 -1.5312,0.5132 -0.625,-5.64525 -0.5938,-5.64525 -1.4687,0 -1.5,0 0,6.59834 0,6.52503 -2,0 -2,0 0,-3.59243 -0.031,-3.66575 -1.7188,4.98542 c -0.9502,2.73515 -2.5944,6.08725 -3.6562,7.40481 l -1.9375,2.34608 -1.4688,-3.37249 -1.4687,-3.44581 -0.8438,3.07923 -0.8437,3.07923 0,-2.63933 -0.031,-2.63935 -1.9375,-1.17303 -1.9375,-1.24636 -0.3125,4.9121 -0.3125,4.9121 -2.4688,-11.36381 -2.5,-11.36382 -0.8437,8.50454 -0.875,8.50453 -1.9688,-2.49271 -2,-2.41939 -1.4062,1.24635 -1.4375,1.24636 -0.125,-7.55144 -0.125,-7.55144 -0.625,7.77138 -0.625,7.77139 -1.4688,-4.83879 c -1.6586,-5.44109 -3.0312,-6.25002 -3.0312,-1.83288 l 0,2.9326 -2.0313,3.00592 -2.0312,3.00591 -0.9688,-1.39299 -0.9687,-1.4663 -0.5938,3.66575 -0.625,3.66575 -2.375,0 -2.4063,0 0,-3.59243 0,-3.59243 -1.5313,-1.31967 -1.5312,-1.39298 -1.9688,4.17895 -1.9687,4.10563 -0.094,-5.64525 -0.125,-5.64525 -0.5,4.47221 -0.4688,4.47221 -0.8437,-3.22585 -0.8438,-3.15254 -2.0625,4.39889 -2.0625,4.32558 0,-2.71265 0,-2.71265 -3.25,0.58651 -1.75,0.29327 0,33.06503 2.2188,-0.21983 2.6875,-0.36658 0.4062,6.23178 0.4063,6.15845 0.1875,-8.21127 0.1875,-8.21128 1.3125,5.64526 1.3437,5.64525 1.0938,-4.47222 1.0937,-4.47221 0.062,3.51912 0.031,3.51912 0.875,-3.15254 0.8438,-3.15255 2.0625,2.56603 c 1.1338,1.42357 2.5388,2.56602 3.125,2.56602 l 1.0625,0 0,-4.17896 0,-4.17895 2.4063,-0.43989 2.4063,-0.43989 0.5937,3.59244 0.5938,3.66575 1,-1.4663 0.9687,-1.4663 2.125,4.61884 2.125,4.69215 1.4063,-1.24635 c 0.7647,-0.68841 1.4269,-2.48412 1.4687,-3.95901 0.042,-1.47486 0.665,0.98242 1.4063,5.49862 l 1.3437,8.21128 0.094,-8.21128 0.094,-8.21127 0.9375,3.51912 0.9688,3.51912 1.2187,-2.93261 c 0.6829,-1.60213 1.6225,-2.93259 2.0625,-2.93259 l 0.7813,0 0.094,6.45172 0.062,6.45171 0.8437,-4.69216 0.875,-4.69215 0.062,2.85928 0.062,2.85928 1.5,-1.31967 1.5,-1.31967 0,-4.25226 0,-4.17896 1.4688,-1.31966 1.4687,-1.31967 0.5625,2.12613 0.5625,2.19945 2.9688,-0.5132 2.9687,-0.51321 0,-1.75956 0,-1.75955 1.5313,0 1.5312,0 0.5625,3.37248 0.5625,3.37249 1.4063,-1.24635 1.4062,-1.24636 0,2.71266 0,2.71265 1.25,-1.75956 c 0.6779,-0.98283 2.0279,-1.95816 3,-2.12614 l 1.75,-0.29325 0,4.4722 0,4.47222 1.4375,3.37248 1.4063,3.29917 0.6562,-6.96492 0.6563,-6.96491 2.1562,0.73315 2.1563,0.80646 0.6562,5.64525 0.6875,5.57194 0.094,-2.85929 0.094,-2.85928 1.4375,1.31967 1.4375,1.24635 0.375,-6.59834 0.4063,-6.67166 1.3125,7.8447 1.2812,7.77138 0.7813,-1.90618 c 0.4283,-1.06553 0.9578,-4.09098 1.1562,-6.67166 l 0.3438,-4.69216 1.5,-0.0732 c 0.8175,-0.0432 1.8062,1.01257 2.2187,2.34608 l 0.75,2.41939 1,-3.51911 0.9688,-3.51912 0.25,26.97989 0.2187,26.9799 0.3125,-22.87426 0.3438,-22.87426 0.875,0 0.9062,0 0.4063,7.62475 0.4062,7.62476 0.1563,-7.3315 0.1562,-7.33149 1.5,-2.9326 1.5,-2.85928 0,2.63933 0,2.56603 1.4688,0 1.4375,0 0.375,11.14387 0.375,11.14387 0.1875,-12.02365 0.1562,-12.02365 1.5,-2.85928 1.5,-2.9326 0.4063,3.22586 c 0.2379,1.75824 0.6623,4.73614 0.9375,6.67166 l 0.5,3.51911 0.094,-5.13204 0.062,-5.20536 1.75,-1.90619 c 2.1413,-2.32686 4.3392,-2.29279 6,0.14663 l 1.25,1.83287 0,-2.78596 0,-2.71266 1.3437,2.56603 1.3438,2.63934 0.6562,-1.53962 0.6563,-1.53961 0.031,3.29917 0,3.29917 0.9687,-3.51911 0.9688,-3.51912 0.031,3.22586 0,3.15254 1.5,-1.31967 1.5,-1.39298 0,3.44579 0,3.44581 1.5,0 1.5,0 0.031,-4.10564 0,-4.10564 0.9687,3.51912 0.9688,3.51912 0.125,-2.34608 c 0.063,-1.29034 0.4659,0.29326 0.9062,3.51912 l 0.8125,5.86519 0.125,-7.03823 0.094,-7.03824 0.9688,3.51912 0.9687,3.51912 0.031,-4.32558 0,-4.32558 1.4375,1.24635 1.4375,1.31967 0.5,-2.78597 0.4688,-2.85928 0.094,5.57194 0.062,5.49862 1.4375,-1.24636 1.4062,-1.31967 0.5938,3.66575 0.5937,3.66575 1.25,-2.34608 1.2188,-2.27277 1.75,0.65984 1.75,0.65984 0,-3.29918 0,-3.37248 1.5,0 1.5,0 0.062,4.10563 0.062,4.10563 0.9375,-5.4253 0.9375,-5.4253 1,1.46629 1,1.4663 0.062,7.47813 0.062,7.47812 0.9062,-5.27867 0.9063,-5.27868 1.0312,0 1.0313,0 0,-4.76547 0,-4.83879 1,1.39299 1,1.46629 0,-2.4927 0,-2.49271 2,0 2,0 0,2.49271 0,2.4927 1,-1.46629 1,-1.39299 0,3.8857 0,3.959 2,-5.57193 1.9687,-5.57194 0.9063,3.22586 0.9062,3.22586 0.5313,-3.22586 0.5312,-3.22586 0.094,5.27868 0.062,5.27867 1.0313,0 1.0312,0 0.7813,-4.9121 0.7812,-4.98541 1.6875,3.959 1.6875,3.95901 0,-2.78597 0,-2.78597 1.4063,2.71266 c 0.771,1.50128 1.6796,5.43767 2.0312,8.72447 l 0.6563,5.93852 1.4687,-2.85929 1.4375,-2.78597 0.094,4.3989 0.062,4.32558 1.0313,-6.45171 1,-6.45172 0.9062,1.31967 0.9375,1.39298 0.5938,-3.66574 0.5937,-3.66575 0.7813,1.09972 0.7812,1.17305 1.25,-3.51912 1.2188,-3.51912 1.375,0 1.375,0 0,2.19945 0,2.19945 2.25,1.68624 c 1.2375,0.90606 2.5959,2.81326 3,4.25227 l 0.7187,2.56602 0.031,-3.81238 0,-3.81237 1.5,-2.9326 1.5,-2.85928 0.031,4.3989 0,4.32557 0.875,-3.15254 0.8438,-3.15254 0.6562,2.4194 0.6563,2.4927 2.0937,-1.02641 c 1.1629,-0.52538 2.3349,-1.44539 2.5938,-2.05282 0.2589,-0.60744 1.5583,1.45652 2.875,4.54553 l 2.375,5.64525 0.1562,8.8711 0.1563,8.87111 0.5937,-10.55735 0.5938,-10.55735 2.2812,0 2.2813,0 0.9375,-3.51911 0.9375,-3.51912 1.2812,-0.0732 c 0.7076,-0.0432 1.5852,0.94472 1.9375,2.12613 l 0.625,2.12614 0.7188,-5.20536 0.6875,-5.13205 1.9062,4.03232 1.9063,4.03233 0,-2.78597 0,-2.85928 1,1.39298 1,1.4663 0,-3.59244 0,-3.59243 1.75,1.61293 c 0.9625,0.86451 2.4878,3.6657 3.375,6.23177 l 1.625,4.69215 1.1562,-5.20536 1.1875,-5.13204 4.2188,1.02641 c 2.3162,0.54999 4.9245,1.67299 5.8125,2.49271 l 1.625,1.4663 1.125,5.93851 1.1562,5.86519 3.25,-6.3784 3.2188,-6.3784 0.2812,35.55774 0.2813,35.48443 0.9687,0 0.9688,0 0,-4.17895 c 0,-2.32261 0.4372,-5.27825 0.9687,-6.52503 l 0.9688,-2.27276 0.3125,-28.07962 0.3437,-28.15293 0.2188,30.49901 0.25,30.49901 1.4687,4.61884 1.4688,4.54552 0.1875,-24.48718 0.1562,-24.5605 0.6563,14.07646 0.6875,14.07647 0.1562,-27.71304 0.1563,-27.78637 1.25,0.9531 1.25,0.95309 1.1875,8.06465 1.2187,7.99133 0.031,-6.37841 0.062,-6.37839 2.7188,2.41939 2.7187,2.41939 1.0313,-3.15254 1.0312,-3.07923 3.5,-0.65983 3.5,-0.58652 2.625,5.79188 2.625,5.71856 1.625,-3.81237 1.625,-3.81238 0.062,4.61884 0.062,4.54553 0.9688,-5.49862 0.9375,-5.57194 1.5625,3.07923 1.5625,3.00591 0.9062,-3.37248 0.9063,-3.37249 0.031,5.27867 0,5.27868 1,0 0.9687,0 0.6563,-6.08514 0.6562,-6.08514 0.8438,3.15254 0.8437,3.15255 0.031,-4.32559 0,-4.39889 1.3438,2.56602 1.3437,2.63933 0.6563,-1.5396 0.6562,-1.53962 0,2.49271 0,2.56602 1.75,-0.58652 1.75,-0.65983 1.3125,3.73906 1.3125,3.73906 0.5,-2.78597 0.5,-2.78596 1.4375,1.31966 1.4375,1.24636 0,-3.22586 0,-3.29917 3,-0.51321 3,-0.58652 0,2.41939 0,2.34608 1,0 1,0 0,-3.51911 0,-3.51912 0.875,0 c 1.3508,0 2.8881,5.20982 3.6563,12.39023 l 0.7187,6.52502 1.375,-2.71265 1.375,-2.63934 0,1.61293 c 0,0.89534 0.7295,-0.0251 1.5938,-2.05282 0.8643,-2.02769 2.2143,-3.73906 3,-3.73906 l 1.4062,0 0.031,-6.45171 0,-6.45172 0.875,3.22586 0.8438,3.15254 0.6562,-2.4927 0.6563,-2.49271 1.4687,1.31967 1.4688,1.31966 0.031,3.8857 0,3.81238 0.875,-3.22586 0.9062,-3.22586 1.4063,6.3784 1.4375,6.45171 1.625,-3.73906 1.5937,-3.81238 2.5625,0 2.5625,0 0.031,2.9326 0,2.9326 0.875,-3.15254 0.875,-3.22586 0.4375,3.22586 0.4688,3.15254 1.6875,-3.29917 1.7187,-3.29917 0.875,2.12612 c 0.4733,1.17115 1.048,4.23761 1.3125,6.8183 l 0.5,4.69216 0.125,-5.27868 0.094,-5.27868 0.9375,0 0.9375,0 0.4688,4.10564 0.4687,4.10564 0.7188,-5.27868 c 0.8699,-6.3548 1.357,-6.54061 3.0937,-1.17304 l 1.3125,4.10564 0.062,-3.51912 0.031,-3.51911 0.9688,3.51911 0.9687,3.51912 0.125,-4.69216 0.094,-4.69215 1.0938,8.21127 1.0625,8.21127 0.7187,-7.03823 0.7188,-7.03823 0.1562,3.51911 0.1563,3.51912 1.375,-5.79188 1.375,-5.86519 1.3125,6.81828 1.3125,6.74498 0.6562,-5.64525 0.6875,-5.64525 0.094,5.20536 c 0.055,2.82712 0.4998,5.69841 0.9688,6.37839 l 0.8437,1.17304 1.875,-3.15254 1.8438,-3.22586 1.25,3.8857 1.25,3.81238 0.031,-3.07924 c 0.017,-1.70508 0.7062,-4.66282 1.5312,-6.59834 l 1.5,-3.51911 0,3.07922 0,3.07923 2.5625,-6.45171 2.5313,-6.45172 1.4062,0 c 0.7703,0 1.6601,1.05574 2,2.34608 l 0.625,2.34607 2.3125,0 2.2813,0 1,7.62476 0.9687,7.62476 1.375,-6.59835 1.3438,-6.67166 1.3125,4.17895 1.2812,4.17895 0,-3.959 0,-4.03233 1,0 1,0 0.031,-4.10563 0.062,-4.10564 1.3125,5.57194 1.3125,5.57193 0.6875,-4.32558 0.7188,-4.32558 0.9375,3.4458 0.9062,3.44581 0.031,-2.9326 0,-2.9326 1,0 1,0 0,4.69215 0,4.69216 1,0 1,0 0.1563,6.45171 0.125,6.45172 0.4375,-5.27868 0.4375,-5.35199 0.9375,1.39298 0.9062,1.31968 0,-3.95901 0,-3.8857 1.4063,2.71266 1.4375,2.78597 0.6562,-2.56603 0.6563,-2.4927 0.8437,1.24635 0.875,1.24635 0.6875,-2.56602 0.6875,-2.63934 0.875,3.15255 0.8438,3.15254 0.031,-2.41939 0,-2.4194 3.2187,-0.58652 3.2188,-0.58651 0.7812,-2.85929 0.75,-2.85928 0.031,6.45171 0,6.45172 1,0 1,0 0.031,-2.9326 0,-2.93259 0.9688,3.51911 0.9687,3.51912 0.031,-4.17895 0,-4.25227 1,1.39299 1,1.46629 0,-3.66574 0,-3.66575 1.3125,0 c 0.715,0 1.84,1.31087 2.5,2.85928 l 1.1875,2.78597 0,4.3989 0,4.39889 1.50003,-3.51912 c 0.825,-1.93551 1.5,-4.54742 1.5,-5.79188 0,-1.82919 2.23529,-5.13204 3.46875,-5.13204 0.15549,0 1.79417,3.18787 3.65625,7.03823 3.6956,7.64197 4.88275,8.60354 4.90625,4.10564 l 0,-2.9326 0.875,3.22586 0.875,3.22586 1.09375,-4.3989 1.0625,-4.39889 0.0937,5.86519 0.0625,5.8652 1.40625,-6.15846 1.4375,-6.15846 2.25,-1.31966 2.25,-1.39299 0.65625,2.49271 0.65625,2.49271 2.125,-1.53962 2.125,-1.61292 0.0312,3.07922 0,3.07923 0.84375,-3.07923 c 1.07082,-3.96318 2.18606,-3.99344 3.21875,-0.0732 l 0.8125,3.07922 0.65625,-4.03232 0.65625,-4.10563 1.40625,0 1.375,0 0.0312,4.10563 0.0312,4.10563 1.46875,-4.54552 1.46875,-4.54552 1.59375,-0.51321 1.5625,-0.58652 3.6875,5.64525 c 2.02362,3.10691 4.21875,6.77857 4.90625,8.13796 l 1.25,2.4927 0,4.61884 0,4.54553 1,0 1,0 0,-3.59243 0,-3.66575 0.90625,1.24635 0.875,1.31968 0.6875,-6.30509 0.6875,-6.30508 0.90625,3.37248 0.90625,3.37249 0.0625,-4.69216 0.0312,-4.69215 1.375,-4.17895 1.375,-4.25227 0.53125,3.07923 0.5,3.00591 0.0937,-2.93259 0.0625,-2.9326 1.5,0 1.5,0 0.15625,7.62475 0.125,7.62475 0.4375,-5.27867 0.4375,-5.27867 0.875,0 c 0.49419,0 1.54841,2.81046 2.3125,6.23176 l 1.375,6.23177 2.8125,-7.33149 2.78125,-7.40481 1.28125,2.49271 1.28125,2.49271 2.15625,-2.71265 c 1.18227,-1.48442 2.24895,-2.33332 2.375,-1.90619 0.12606,0.42712 1.18044,4.41524 2.34375,8.8711 l 2.125,8.06464 0.65625,-6.15845 0.65625,-6.15845 1.40625,1.24635 1.40625,1.24636 0,4.98541 0,4.9121 3.5,-8.72448 3.5,-8.72447 2,0 2,0 0,4.61884 0,4.54552 1,1.39298 1,1.46631 0.125,5.13204 0.0937,5.13205 1.03125,-7.62476 1.0625,-7.62475 0.84375,0 0.84375,0 0.0312,2.93259 0.0312,2.9326 1.46875,-4.54552 1.46875,-4.54553 0,3.07923 0,3.07922 1.5,-2.93259 1.5,-2.85928 0.0312,3.22586 0,3.15253 0.75,-2.34607 c 0.64721,-2.06673 1.61085,-2.808 5.71875,-4.32558 0.55,-0.20318 1.34592,-1.42231 1.75,-2.71266 l 0.71875,-2.34608 0.0312,6.45172 0,6.45172 1.5,0 1.5,0 0.0312,-2.9326 0,-2.9326 0.96875,3.51912 0.96875,3.51911 0.0312,-5.86519 0.0312,-5.8652 0.84375,3.15255 0.84375,3.15254 0.71875,-5.49862 0.71875,-5.49862 0.5,3.00591 0.53125,2.9326 0.90625,-1.31967 0.90625,-1.31967 0,5.8652 0,5.86519 0.84375,1.17304 0.875,1.24635 1.28125,-5.64525 1.28125,-5.64525 1.59375,-1.4663 1.59375,-1.39298 1.125,3.66575 c 0.62514,2.00575 1.4526,3.59243 1.84375,3.59243 0.39115,0 1.39375,1.5836 2.21875,3.51911 0.825,1.93552 1.92678,3.51912 2.4375,3.51912 l 0.90625,0 0.0312,-2.93259 0,-2.9326 0.9375,3.51912 0.9375,3.44579 1,-5.79187 0.96875,-5.8652 0.0625,7.03823 0.0937,7.03824 1.90625,-7.40481 1.9375,-7.4048 1.3125,0.43988 c 0.72209,0.25661 1.875,1.26512 2.5625,2.27277 l 1.25,1.83287 1.0625,-1.4663 1.03125,-1.53961 1.46875,2.85928 1.4375,2.78596 0,-2.71265 0,-2.71265 1.96875,2.49271 1.9375,2.41939 1.0625,-4.10564 1.03125,-4.17895 1.4375,4.32559 1.40625,4.32558 1.0625,-4.61884 1.03125,-4.54553 1.96875,0.29326 1.9375,0.21983 2.34375,4.76547 c 2.51174,5.08691 3.61582,5.61256 5.5625,2.71265 l 1.25,-1.83287 0.0312,3.07922 0,3.00592 0.96875,-3.51912 0.96875,-3.51911 0.0312,5.79187 0,5.71857 1.46875,-4.54553 1.46875,-4.61884 0.0312,2.9326 0.0312,2.93259 1,0 1,0 0.0312,-4.10563 c 0.0175,-2.2581 0.6925,-6.14644 1.5,-8.65116 l 1.46875,-4.54553 0.0312,3.37249 0.0312,3.37249 1.03125,-4.10564 1.03125,-4.17895 0.9375,1.39298 0.9375,1.31967 0.15625,7.47813 0.125,7.47812 0.4375,-5.27868 0.4375,-5.27868 0.84375,0 0.84375,0 0.84375,6.08514 0.875,6.01183 2.21875,-4.54553 c 1.22554,-2.49364 2.21875,-5.61751 2.21875,-6.96491 l 0,-2.49271 1.25,0.43989 c 0.6875,0.2447 1.88532,1.3641 2.65625,2.4927 l 1.40625,2.05283 1.1875,-3.81238 1.1875,-3.73906 1.15625,2.71265 c 0.64086,1.50351 1.15625,3.58656 1.15625,4.61884 0,1.03227 0.8571,3.84369 1.90625,6.30509 l 1.90625,4.54552 0.5,-4.54552 0.5,-4.47222 1.09375,0 1.09375,0 0.0312,5.27868 0.0312,5.27868 1.71875,-4.76548 c 0.9442,-2.62035 2.82762,-6.57936 4.1875,-8.79779 l 2.5,-4.03232 1.84375,0 1.875,0 0.53125,4.69215 c 0.28766,2.58069 0.89443,4.69216 1.34375,4.69216 l 0.8125,0 0.40625,6.45171 0.4375,6.45172 0.15625,-8.21128 0.15625,-8.21126 1.0625,-3.51913 1.0625,-3.51911 0.5,3.00591 0.53125,2.9326 1.0625,-1.53962 1.0625,-1.53961 1.34375,4.32558 1.34375,4.32558 0.0937,-4.54552 0.0625,-4.61884 0.53125,3.00591 0.5,2.9326 2.8125,-4.76548 2.84375,-4.69215 0.65625,7.03823 0.65625,7.03824 0.9375,0 0.90625,0 0,-4.3989 0,-4.39889 1.75,0.29325 1.75,0.29327 0.6875,3.51911 0.6875,3.51912 0.0625,-4.25227 0.0625,-4.25226 2.71875,4.98541 2.71875,5.05873 1.28125,-4.17895 1.28125,-4.10564 0,2.27276 0,2.27277 2.5,0.5132 2.5,0.51321 0.125,-2.9326 c 0.0724,-1.59848 0.46982,0.76248 0.87501,5.27868 l 0.75,8.21127 0.125,-9.8242 0.125,-9.8242 1,-1.4663 1,-1.39298 0.0312,3.07922 0,3.00592 0.8125,-2.9326 0.8125,-3.00591 2.3125,4.69215 2.3125,4.69216 0.84375,-1.24636 0.875,-1.24635 0,4.69216 0,4.69215 1.03125,1.4663 1,1.4663 0.8125,-5.13205 0.78125,-5.13205 1.6875,3.95902 1.6875,3.959 0,-3.15254 0,-3.15254 1.96875,-3.95901 c 2.41759,-4.8564 3.90637,-5.58767 6.78125,-3.29917 l 2.25,1.83287 0,2.27277 0,2.34607 1.0625,-1.53961 1.0625,-1.4663 1.71875,4.69216 1.75,4.69215 1.6875,-2.27276 1.71875,-2.27276 0.0312,1.90619 c 0.008,1.03187 0.57061,-0.65799 1.25,-3.73907 0.67939,-3.08108 1.44375,-5.40058 1.71875,-5.13204 0.275,0.2685 1.7956,-0.64403 3.375,-2.05282 l 2.875,-2.56602 1.375,2.71265 1.375,2.63934 0,75.95426 0,68.91604 1,0 0,-65.61686 0,-72.6551 1.5,1.39298 1.5,1.31967 0,71.33543 0,64.22388 1.125,0 0.40625,-8.79779 c 0.41233,-8.70982 1.05296,-43.28513 1.4375,-76.83405 l 0.71875,-60.99802 0.28125,51.61371 0.3125,51.61371 0.78125,-11.73038 0.78125,-11.7304 0.0625,-39.00354 0.0937,-39.00354 1.34375,-2.56602 1.34375,-2.63935 1.15625,5.93852 c 0.63632,3.27648 1.15625,8.03737 1.15625,10.55735 l 0,4.54552 0.9375,0 c 0.50416,0 1.12884,-1.31967 1.40625,-2.9326 l 0.5,-2.93259 0.0937,2.93259 0.0625,2.9326 1.34375,0 1.34375,0 1.3125,-5.71857 1.3125,-5.79187 0.78125,1.09972 0.78125,1.09972 0.4375,-4.10563 0.46875,-4.17895 0.1875,5.86519 0.1875,5.8652 0.84375,-4.69216 0.875,-4.69215 0.0937,3.51911 0.0625,3.51912 1.25,-5.64525 c 0.67939,-3.12397 1.78125,-6.13966 2.46875,-6.67166 l 1.25,-0.9531 0,3.15255 0,3.07923 3,0 c 1.65,0 3,-0.52294 3,-1.24636 0,-0.72339 1.78555,-1.44507 3.96875,-1.53961 l 3.96875,-0.14663 0.59375,4.17895 0.5625,4.17895 1.625,-0.51321 1.65625,-0.58651 0.5625,-3.59244 0.5625,-3.51911 1.75,0.58652 1.75,0.65983 0.0312,-2.71265 0.0312,-2.78597 1.03125,4.17895 1.03125,4.17895 0.9375,-1.39298 0.9375,-1.31967 0,2.27277 0,2.27276 1.75,-0.65984 1.75,-0.65983 1.75,2.12613 1.75,2.12614 0,-2.4194 0,-2.49271 1.4375,0 c 0.7857,0 2.0232,-1.28893 2.75,-2.93259 1.4411,-3.25915 2.43565,-3.42446 5.03125,-0.73315 l 1.6875,1.75955 1.0625,-1.5396 1.03125,-1.4663 0,3.73906 0,3.81237 1,-1.46629 1,-1.39299 0,2.41939 0,2.41939 2.59375,-2.71265 2.5625,-2.78597 0.90625,3.37249 0.90625,3.37249 0.0937,-4.69215 0.0937,-4.69216 0.5,2.85928 0.5,2.78597 2.50001,-2.19945 c 1.3742,-1.22571 2.83784,-2.27277 3.28124,-2.27277 l 0.8125,0 0.65625,11.73039 0.6875,11.73039 0.8125,0 0.84375,0 0.5625,-6.45171 c 0.3096,-3.54844 1.2444,-8.56318 2.0625,-11.14387 l 1.5,-4.69215 1.0625,6.67165 c 0.5911,3.63244 1.11125,9.43898 1.15625,12.90343 l 0.0937,6.23177 1.34375,-7.03823 1.375,-7.03823 0.1875,8.21127 0.1875,8.21127 0.71875,-8.21127 c 0.4052,-4.5162 0.8265,-7.15554 0.9375,-5.86519 l 0.21875,2.34607 0.71875,-4.25226 c 0.3953,-2.35359 1.159,-4.39163 1.6875,-4.54553 l 0.9375,-0.29326 0.65625,6.8916 0.625,6.89161 0.125,-8.7978 0.0937,-8.79779 2,-4.69216 c 1.1,-2.58068 2.366,-4.69215 2.8125,-4.69215 0.9249,0 4.3892,10.58105 5.75,17.59559 l 0.90625,4.69215 0.34375,-12.7568 0.3125,-12.83011 0.9375,3.4458 0.90625,3.37249 0.0312,-3.8857 0,-3.88568 1.53125,0.5132 c 0.8306,0.28599 1.89855,1.4999 2.40625,2.71265 l 0.9375,2.19945 0.40625,9.38431 0.40625,9.38432 0.15625,-9.97084 0.15625,-9.97083 0.875,0 c 0.4826,0 1.4451,1.59785 2.125,3.51912 l 1.25,3.51911 0.8125,-1.24635 0.84375,-1.24635 2.5625,1.53961 2.53125,1.4663 0.15625,7.4048 0.15625,7.3315 0.40625,-6.30509 0.40625,-6.30508 1.34375,1.17304 1.34375,1.24635 0.65625,-2.56602 0.6875,-2.56602 0.8125,1.24636 0.8125,1.17303 1.25,-3.51911 1.21875,-3.51912 1.75,0 1.75,0 1.1875,3.29917 1.15625,3.29917 2.9375,-0.51321 2.96875,-0.43988 0.0312,3.66574 0.0312,3.59244 1.9375,-5.8652 c 1.0755,-3.22586 1.979,-7.44879 2,-9.38431 l 0.0312,-3.51912 1,3.51912 0.96875,3.51912 0.75,-2.34608 c 0.4125,-1.29034 1.3125,-2.61001 2,-2.9326 l 1.25,-0.58652 0,2.12614 0,2.12613 2,-1.17304 2,-1.24635 0,2.78596 0,2.71266 1.03125,-1.4663 1,-1.4663 0.40625,3.07922 c 0.2252,1.69472 0.6686,5.9825 1,9.53095 l 0.625,6.45171 0.96875,0 0.96875,0 0,-2.49271 c 0,-1.4061 1.0141,-4.54376 2.25,-6.8916 l 2.25,-4.25227 0.75,2.71266 0.71875,2.71265 0.0312,-2.85928 0,-2.85929 1.34375,1.24635 1.34375,1.17305 1.25,-3.44581 1.21875,-3.51911 2.375,2.12613 2.34375,2.05282 0.40625,-2.78597 0.375,-2.78596 2.59375,2.78596 2.59375,2.78597 1.1875,-3.37249 1.1875,-3.29917 1.75,2.19945 1.71875,2.12613 1.0625,-2.41939 1.0625,-2.49271 0.6875,5.05873 0.6875,5.05873 1.75,-4.76547 1.78125,-4.76547 0.5625,1.24635 c 0.3063,0.71854 1.3621,1.67651 2.375,2.12614 1.0129,0.44962 1.84375,1.04271 1.84375,1.24635 0,0.57463 5.7401,2.3408 8.25,2.56603 l 2.25,0.21982 0.0312,2.71265 0.0312,2.63934 1.40625,-4.32558 1.40625,-4.32558 3.1875,-0.5132 3.1875,-0.51321 1.28125,3.07923 1.3125,3.07923 0.59375,-2.9326 0.5625,-2.9326 0.5625,2.85928 0.5625,2.78597 1.4375,-1.31967 1.4375,-1.24635 0.0937,-5.05873 0.0937,-5.05873 1,8.21127 1,8.21127 1.84375,-5.35199 1.84375,-5.27867 0.9375,3.88569 0.9375,3.959 2.1875,-1.31967 2.1875,-1.39298 0.5625,3.44581 0.5625,3.37248 1.40625,-2.71266 1.40625,-2.78596 0.59375,1.4663 0.625,1.39298 1.875,-2.34608 1.84375,-2.34607 0.125,5.35199 0.125,5.35198 0.4375,-3.959 0.4375,-3.95901 1.59375,1.39299 1.59375,1.4663 1.15625,-3.73907 1.15625,-3.73906 1.28125,10.99725 1.28125,10.92392 1.5625,-11.14387 1.5625,-11.14387 0.84375,0 0.84375,0 0.0312,6.45171 0.0312,6.45171 1.3125,-4.03231 1.34375,-4.10564 0.625,1.53961 0.65625,1.53962 0,-3.81238 0,-3.81238 1.99999,-2.56602 2,-2.49271 0,3.81238 0,3.81238 1.25,-0.9531 1.25,-1.02641 1.3125,3.07923 1.3125,3.15254 2.1875,-5.49861 2.1875,-5.49863 1.25,1.02641 1.25,1.02641 0.125,12.09696 0.125,12.09697 0.46875,-4.3989 0.5,-4.47221 0.875,3.29917 0.875,3.22586 0.0312,-6.45171 0,-6.45172 1.5,0 1.5,0 0.0312,6.45172 c 0.008,3.54844 0.40825,7.97797 0.90625,9.8242 l 0.90625,3.37249 0.6875,-8.65117 c 0.381,-4.76375 1.10605,-9.26377 1.59375,-9.97083 l 0.875,-1.24636 0,2.63935 0,2.63933 1.5,-3.51911 c 0.825,-1.93552 1.5,-4.62933 1.5,-6.01183 l 0,-2.56602 1.5,0 1.5,0 0,3.29917 0,3.29918 1.53125,1.31966 1.53125,1.39299 0.59375,-6.74498 0.5625,-6.74497 1.65625,0.73314 c 0.9052,0.41254 1.9625,0.85433 2.375,0.9531 l 0.75,0.14663 0.25,67.44974 0.21875,67.44974 0.53125,-69.2093 0.5625,-69.2093 0.34375,49.26764 0.375,49.26763 0.78125,-11.73039 c 0.4283,-6.45171 0.8683,-27.56641 1,-46.92155 l 0.25,-35.19117 0.8125,43.25581 c 0.4438,23.76337 0.98485,44.87808 1.21875,46.92155 0.2339,2.04348 0.55445,-17.97682 0.71875,-44.42885 l 0.3125,-48.09459 0.6875,45.74852 c 0.3764,25.16169 0.7395,60.26487 0.8125,78.00709 l 0.0937,25.22033 1.0625,0 0.21875,-73.31493 0.21875,-80.35316 0.53125,75.07449 0.5625,75.07449 0.34375,-32.84509 c 0.2003,-18.0648 0.6863,-49.73686 1.0625,-70.38234 l 0.6875,-37.53724 0.28125,26.97989 c 0.1667,14.83894 0.64095,38.06511 1.03125,51.61372 l 0.71875,24.63381 0.15625,-53.37327 c 0.0922,-29.3553 0.38755,-53.37327 0.65625,-53.37327 0.2687,0 1.3937,1.88336 2.5,4.10564 l 2,4.03232 0.0312,3.59243 0,3.51911 0.96875,-3.51911 c 0.5332,-1.93563 0.99,-2.68375 1,-1.68624 l 0,1.83287 2.375,-3.66575 2.34375,-3.59243 1.65625,1.4663 1.625,1.4663 0.625,-3.88569 0.625,-3.81238 1.90625,3.95901 1.875,4.03232 1.375,-4.3989 1.375,-4.39889 1.625,3.15254 1.59375,3.07923 0,-2.78597 0,-2.78597 2.25,0.73315 2.25,0.73315 1.875,8.94442 1.84375,8.87111 1.71875,-7.47813 1.6875,-7.47812 2.9375,-0.73315 2.9375,-0.73315 2.25,7.47813 2.25,7.55143 0,-5.27867 0,-5.27867 1,0 1,0 0.0312,2.93259 0,2.9326 0.90625,-3.29918 0.90625,-3.37248 1.6875,-0.58652 c 0.9173,-0.31582 2.44865,-2.21918 3.40625,-4.25226 l 1.71875,-3.73907 1.625,0 1.625,0 1.03125,4.10564 1,4.10563 0.0312,-4.10563 0.0312,-4.10564 1,0 1,0 0,4.61884 0,4.61884 1.375,-1.17303 1.375,-1.24636 1.625,3.81238 1.625,3.81237 0.125,-7.77137 0.125,-7.84471 0.4375,4.10564 0.46875,4.10564 1.34375,0 1.34375,0 0.5,2.9326 0.5,2.93259 0.0937,-3.00591 0.0625,-3.07923 1,1.39298 1,1.4663 0,-3.44579 0,-3.44581 1.25,-1.02641 c 0.6875,-0.54269 2.0375,-0.51233 3,0.0732 l 1.75,1.09972 0,4.54553 0,4.54553 1,-1.4663 1,-1.39299 0.15625,6.59835 0.125,6.52503 0.4375,-5.27868 0.4375,-5.35199 0.9375,1.39299 0.90625,1.31967 0,-2.9326 0,-2.9326 1.40625,4.47221 1.375,4.47221 1.625,-3.15254 1.59375,-3.07923 0.0312,3.22586 0.0312,3.15254 1.125,-4.69215 c 1.5022,-6.2147 2.782,-7.967 5,-6.96492 l 1.8125,0.87978 0,-3.37249 0,-3.4458 2.5,0 2.5,0 0.0312,2.93259 0,2.9326 0.90625,-3.29917 0.90625,-3.37249 0.40625,6.89161 0.4375,6.81829 0.75,-7.18487 0.75,-7.25818 1.40625,0 1.40625,0 0,2.12613 0,2.05282 0.90625,-1.24635 0.90625,-1.31967 0.65625,4.03232 0.65625,4.03232 0.6875,-2.56602 0.6875,-2.49271 2.90625,-1.24635 2.875,-1.24636 3.5,3.37249 3.46875,3.44581 3.40625,-1.09973 3.375,-1.09973 1.5,-2.85927 1.46875,-2.85929 0.0312,5.57194 0.0312,5.49862 1.03125,-4.10564 1,-4.10563 1.90625,0 1.875,0 0.625,2.34607 0.625,2.34608 1.9375,0 1.9375,0 0,3.59243 0,3.51912 2,-2.9326 2,-2.93259 0,-3.8857 0,-3.88569 1.375,-1.24635 1.375,-1.24636 1.125,2.63934 1.125,2.63934 0.0312,4.83878 0.0625,4.76548 1.46875,-6.30509 1.46875,-6.3784 1.5,1.31967 1.46875,1.31967 0,6.67166 0,6.59834 2,-0.29326 2,-0.36657 0,-5.35199 0,-5.42531 1.03125,0 1.03125,0 0.90625,5.27867 0.90625,5.27868 0.0937,-3.51912 0.0937,-3.51911 1.46875,4.61884 1.46875,4.54552 0,-3.51911 c 0,-1.92407 0.5351,-4.77429 1.1875,-6.30509 l 1.1875,-2.78597 1.8125,3.8857 1.8125,3.81238 0,-4.25227 0,-4.25227 0.6875,1.53962 0.65625,1.61292 2.34375,-3.59243 2.3125,-3.59243 0.21875,49.92747 0.21875,49.85415 0.53125,-49.26763 0.53125,-49.26764 2.3125,-0.73314 2.28125,-0.73316 1.625,9.60427 1.625,9.67756 0.8125,-3.00591 0.8125,-3.07922 0.0937,4.69215 0.0937,4.69216 1.34375,-8.21128 c 0.7413,-4.5162 1.423,-7.15554 1.5,-5.86519 l 0.125,2.34608 0.937505,-5.42531 0.9375,-5.42531 2.71875,0.73316 2.75,0.73314 1.25,5.8652 1.25,5.8652 0.0312,-2.85929 0,-2.9326 2.5,0.51321 2.5,0.43989 0,1.75956 0,1.68624 2.1875,-1.02641 2.15625,-0.95309 0.8125,-3.00591 0.8125,-3.00592 0.0937,3.51912 0.0625,3.51912 1.0625,-5.8652 1.03125,-5.86519 0.46875,2.9326 0.5,2.93259 1.84375,0 1.84375,0 0.4375,5.27867 0.40625,5.27868 0.15625,-5.13204 0.125,-5.13205 2.25,0.51321 c 1.2375,0.2872 3.6857,2.3395 5.4375,4.54552 l 3.1875,4.03232 0.625,-4.69215 0.65625,-4.69216 0.8125,1.17304 0.8125,1.17304 1.375,-3.88569 1.34375,-3.88569 0.625,7.99132 0.625,7.99133 0.125,-7.69807 0.125,-7.69806 1.96875,2.49271 1.9375,2.41938 0.71875,8.7978 0.71875,8.72448 0.875,-6.15846 0.875,-6.23177 1.96875,1.24636 1.9375,1.17303 0.0312,2.63934 0.0312,2.63934 1.03125,-4.10563 c 0.5606,-2.2581 1.44605,-4.10564 1.96875,-4.10564 l 0.9375,0 0,3.59243 0,3.59243 2.90625,-4.98541 2.90625,-5.05873 0.96875,1.39298 1,1.4663 1.25,-3.59244 1.25,-3.51911 1.78125,3.73906 1.75,3.73907 1.4375,-4.91211 1.46875,-4.9121 1.3125,3.66575 1.3125,3.66574 0.71875,-2.71265 0.71875,-2.78596 2.53125,1.4663 2.53125,1.46629 0.65625,7.03823 c 0.3611,3.85745 1.08615,7.62178 1.59375,8.35791 l 0.90625,1.31967 0,-2.71266 c 0,-1.48556 0.7875,-4.98717 1.75,-7.77138 l 1.75,-5.05873 2.75,-0.43989 2.75,-0.43989 0,3.37249 0,3.37248 1,0 1,0 0.0312,4.10564 0.0312,4.10564 1.875,-5.27868 1.90625,-5.27867 0.5,2.93259 0.5,2.9326 0.0937,-2.9326 0.0625,-2.93259 1.5,0 1.5,0 0,-2.41939 0,-2.49271 0.9375,1.31966 0.90625,1.31967 1.5,-3.51911 c 0.83,-1.94736 2.17185,-3.59243 2.96875,-3.59243 l 1.4375,0 1.34375,3.81237 1.3125,3.73906 0.718755,-4.32557 0.75,-4.3989 0.0625,5.86519 0.0937,5.8652 0.875,-3.15254 0.875,-3.22586 2.09375,4.98541 2.125,4.9121 0.125,-7.62475 0.125,-7.62475 0.4375,4.10563 0.46875,4.10564 1.4375,0 1.40625,0 0,2.34608 0,2.34607 1.09375,0 1.09375,0 0.53125,-4.69215 0.53125,-4.69215 1.375,0 1.375,0 0,-11.95034 0,-11.87702 -1.90625,-5.71856 -1.90625,-5.71857 -1.59375,3.73906 -1.59375,3.73906 -0.0312,-4.25226 -0.0625,-4.32558 -1.28125,7.03823 -1.28125,7.03823 -0.6875,-8.06463 -0.6875,-8.06465 -1.5625,5.20536 -1.53125,5.20536 -0.9375,-1.39298 -0.9375,-1.31967 0,4.25226 -0.0312,4.17895 -0.8125,-3.0059 -0.843755,-3.07924 -2.65625,2.85929 -2.65625,2.85928 -1.8125,-3.959 -1.84375,-3.8857 -0.65625,1.61293 -0.6875,1.53961 0,-4.17895 0,-4.10563 -1.46875,1.31967 -1.46875,1.31966 -0.59375,-2.27276 -0.59375,-2.34608 -1.0625,1.53962 -1.03125,1.53961 -0.8125,-3.07923 -0.78125,-3.0059 -1.96875,7.55143 -1.96875,7.55144 -0.625,-3.88569 -0.625,-3.88569 -1.5,1.31966 -1.5,1.31967 0,-3.37248 0,-3.37249 -1.5,1.39299 -1.5,1.31966 -0.0625,-7.84469 -0.0625,-7.91802 -1.375,10.33741 -1.375,10.3374 -1.3125,1.90619 -1.3125,1.90619 -2.90625,-1.17304 -2.90625,-1.17304 -0.84375,3.00592 -0.8125,3.0059 -0.0312,-5.86519 -0.0312,-5.86519 -0.96875,3.51911 -0.96875,3.51912 0,-3.15254 -0.0312,-3.22586 -1.5,2.85928 -1.5,2.9326 -1.5,-2.9326 -1.5,-2.85928 -1.5,2.85928 -1.5,2.9326 -0.0625,-4.3989 -0.0937,-4.39889 -0.5,3.00591 -0.5,2.9326 -1.875,-5.27868 -1.90625,-5.35199 -0.0312,2.49271 -0.0312,2.41939 -2,0.36658 -2,0.29326 -0.0312,-2.78597 -0.0312,-2.78597 -1.3125,4.10564 -1.3125,4.03232 -0.75,-1.68624 c -0.404,-0.9477 -1.2334,-1.73844 -1.875,-1.75956 l -1.1875,-0.0732 -0.53125,4.76547 -0.5625,4.69216 -1.625,0.73314 -1.65625,0.73316 -0.375,-8.94442 -0.40625,-8.94443 -0.15625,9.01774 -0.1875,8.94442 -2.25,-1.68624 c -1.2375,-0.90116 -2.59145,-3.07231 -3.03125,-4.83879 l -0.8125,-3.22586 -1.4375,0 -1.46875,0 -0.0625,4.10564 -0.0937,4.10564 -0.5,-3.00592 -0.53125,-3.0059 -1.40625,2.71265 -1.40625,2.71265 0,-1.75956 0,-1.68625 -1.46875,2.85928 -1.5,2.9326 -0.46875,-3.22585 c -0.2493,-1.75825 -0.6316,-5.33733 -0.875,-7.91801 l -0.4375,-4.69216 -0.125,6.45171 -0.125,6.45171 -1.40625,0 c -0.78,0 -2.13,0.68307 -3,1.4663 l -1.59375,1.39299 0,-3.37249 0,-3.37248 -1.75,-0.43989 c -0.9625,-0.23179 -3.04865,-0.34746 -4.65625,-0.29327 l -2.9375,0.0732 -0.8125,-3.00592 -0.8125,-3.00591 0,4.25227 -0.0312,4.25226 -0.9375,-1.31967 -0.90625,-1.31966 -0.59375,4.32558 -0.59375,4.39889 -2.9375,0.14663 -2.90625,0.21983 -1.1875,-8.3579 -1.156255,-8.28459 -0.875,3.22586 -0.875,3.15254 0,-4.17895 -0.0312,-4.25227 -0.90625,1.31967 -0.90625,1.31967 -0.4375,-2.9326 -0.40625,-3.00591 -1.28125,9.38431 c -0.7063,5.16137 -1.6343,10.34119 -2.0625,11.43713 l -0.78125,1.9795 -2.125,-1.61292 -2.09375,-1.53962 -0.21875,-40.32321 -0.21875,-40.32321 -0.53125,42.2294 -0.53125,42.2294 -1.34375,-5.57194 -1.375,-5.57193 -0.875,3.22586 -0.90625,3.22585 -0.625,-5.27868 c -0.7279,-6.23146 -1.0159,-6.41419 -3,-1.75955 -0.825,1.93551 -1.9268,3.51912 -2.4375,3.51912 l -0.9375,0 -0.0625,-7.62476 -0.0625,-7.62475 -0.96875,5.8652 -1,5.79187 -0.9375,-3.4458 -0.9375,-3.51912 0,6.45172 -0.0312,6.45171 -1.25,-0.58651 c -0.6875,-0.32259 -1.9819,-3.00299 -2.875,-6.01183 l -1.625,-5.49862 -1.0625,7.25818 -1.0625,7.18486 -2.0625,0 -2.0625,0 -0.0937,-7.62475 -0.125,-7.62476 -0.4375,4.69216 c -0.2326,2.58069 -0.6196,7.00145 -0.875,9.8242 l -0.46875,5.13205 -2,-0.29326 -2,-0.36658 -0.0937,-9.45762 -0.125,-9.53095 -0.46875,4.10564 -0.4375,4.10564 -1.4375,0 -1.4375,0 0,4.10564 -0.0312,4.10563 -0.90625,-3.29917 -0.90625,-3.37249 -1.65625,3.15254 -1.65625,3.22586 -0.65625,-2.19945 c -0.3706,-1.20738 -1.25,-2.46338 -1.9375,-2.78597 l -1.25,-0.58651 0,4.10563 -0.0312,4.10564 -0.96875,-3.51912 -0.96875,-3.51912 0,3.44581 -0.0312,3.37248 -1.1875,-2.78597 -1.1875,-2.85928 -1.8125,0 -1.8125,0 0,-2.71265 0,-2.71265 -0.65625,1.53961 -0.65625,1.53962 -1.25,-2.41939 -1.25,-2.49272 -1.46875,4.91211 -1.46875,4.9121 -2.6875,1.17303 -2.71875,1.17304 -2.90625,-3.4458 -2.90625,-3.37248 -1,3.88568 c -0.5362,2.15586 -0.983,3.06598 -1,2.05283 l -0.0312,-1.83288 -2,2.49271 -2,2.56602 0,-4.76547 0,-4.83878 -1,0 -1,0 0,3.37248 0,3.29917 -1.75,-0.65983 -1.75,-0.58652 -0.59375,2.12613 -0.59375,2.19945 -1.5,-3.4458 -1.46875,-3.51912 -2.375,-0.80646 -2.375,-0.80647 -0.6875,-5.86519 -0.6875,-5.8652 -0.125,3.51912 -0.15625,3.51912 -1.34375,-4.10564 -1.34375,-4.17895 -0.625,3.73906 -0.59375,3.73907 -1,-1.4663 -1.03125,-1.4663 0,3.07922 -0.0312,3.00592 -0.96875,-3.51912 -0.96875,-3.51912 -0.0937,2.34608 c -0.0632,1.29034 -0.4971,-0.29326 -0.9375,-3.51911 l -0.78125,-5.8652 -0.0937,5.27868 -0.125,5.27867 -0.875,0 -0.875,0 -0.53125,4.69216 -0.53125,4.69215 -1.53125,0 -1.53125,0 -1.4375,-4.76547 -1.4375,-4.83879 -1.625,3.81238 -1.625,3.81238 -0.0312,-4.25227 -0.0625,-4.32558 -1.25,7.03823 -1.28125,7.03824 -0.75,-8.21127 -0.71875,-8.21128 -1.3125,4.10564 c -0.722,2.2581 -1.8107,4.10564 -2.4375,4.10564 l -1.15625,0 0,3.81237 0,3.81238 -1.40625,-2.71265 -1.40625,-2.78597 -0.65625,2.49271 -0.625,2.41939 -2,0 -2,0 -2.4375,-6.15845 c -1.3488,-3.4143 -2.46875,-5.49783 -2.46875,-4.61884 l 0,1.61292 -2,-2.56602 -2,-2.49271 -0.0312,3.00591 -0.0312,3.00592 -1.40625,-4.32559 -1.40625,-4.39889 -2.03125,7.77138 -2,7.77138 -0.65625,-4.10563 -0.6875,-4.10564 -1.40625,1.24635 -1.40625,1.24636 -0.5625,-3.4458 -0.5625,-3.4458 -0.90625,1.31967 -0.90625,1.24635 -0.0625,-7.77138 -0.0625,-7.77139 -1.46875,11.14387 -1.46875,11.14387 -1.21875,0.21983 c -0.6708,0.11613 -2.90625,0.51705 -4.96875,0.87978 l -3.75,0.65983 0,-2.78597 0,-2.85928 -1.75,0 -1.75,-0.0732 -0.75,2.56602 -0.75,2.56602 -0.75,-2.34608 c -0.4125,-1.29034 -1.3125,-2.61001 -2,-2.9326 l -1.25,-0.58651 -0.0312,2.93259 -0.0312,2.9326 -1.46875,-4.54552 -1.46875,-4.54553 0,2.78597 0,2.78597 -2.03125,-4.76547 -2.03125,-4.76548 -0.96875,1.39299 c -0.5299,0.76839 -0.96875,2.87819 -0.96875,4.69215 l 0,3.29918 -2,2.4927 -2,2.56603 0,-68.54946 0,-68.47615 -0.6875,1.61292 -0.6875,1.61294 -0.625,65.03034 -0.65625,65.03034 -0.15625,-54.17973 c -0.0957,-29.80222 -0.48645,-63.84968 -0.84375,-75.66101 l -0.4375,-14.7363 -1.375,0 0.21875,32.55183 c 0.1644,22.25841 0.1644,58.68127 0,80.93969 l -0.28125,40.46984 0,-80.93969 0,-73.02167 -1.90625,0 -0.3125,66.56995 c -0.184,40.32322 -0.48095,75.42641 -0.65625,78.00709 -0.1754,2.58069 -0.3625,-26.86747 -0.4375,-65.47023 l -0.15625,-70.16239 -0.75,1.75956 -0.75,1.75956 -0.53125,67.22979 -0.5625,67.22979 -0.1875,-65.10366 -0.21875,-65.10366 -1,0 -1,0 -0.21875,67.44974 -0.25,67.44974 -0.53125,-78.59361 -0.5,-73.02167 -0.0625,0 -0.1875,72.06858 -0.25,77.64051 -1.5,0 -1.5,0 0,-2.56602 -0.0312,-2.56603 -0.96875,3.51912 -0.96875,3.51912 0,-5.13205 -0.0312,-5.13204 -1,-1.4663 -1,-1.39299 0,2.85929 0,2.85928 -0.65625,-1.53962 -0.625,-1.53961 -1.34375,4.10564 -1.3125,4.03232 -0.0312,-2.71265 c -0.0175,-1.52078 -0.75135,-4.54865 -1.65625,-6.67166 l -1.65625,-3.81238 -0.71875,2.71265 -0.71875,2.71266 -0.625,-9.53094 -0.65625,-9.45763 -1.5,1.31967 -1.5,1.31967 0,6.81829 0,6.74497 -1.5,0 -1.5,0 -0.0937,-8.79779 -0.125,-8.7978 -0.5,4.69216 c -0.2646,2.58069 -0.8784,5.73909 -1.375,6.96492 -0.4966,1.22582 -0.90625,4.50177 -0.90625,7.3315 l 0,5.20535 -1.53125,1.39299 -1.5625,1.39298 -2.40625,-3.73906 -2.40625,-3.66575 -0.96875,1.39298 -0.96875,1.39299 -0.46875,-4.10564 -0.4375,-4.17895 -0.15625,4.69216 c -0.0722,2.58069 -0.55335,6.27575 -1.09375,8.21127 l -1,3.51912 -3.46874,-9.38431 -3.4375,-9.38432 -0.0625,6.45172 -0.0312,6.45171 -0.96875,0 -0.9375,0 -1.125,-9.60425 -1.09375,-9.60426 -0.53125,1.24635 c -0.2896,0.67941 -1.1248,5.25599 -1.875,10.19078 l -1.375,8.94442 -0.0312,-5.27868 -0.0625,-5.27867 -3.59375,3.51912 -3.59375,3.51912 -1.65625,-2.05282 -1.65625,-1.97951 -1.34375,1.17305 -1.375,1.09971 -0.875,-3.22585 -0.875,-3.22586 0,2.49271 -0.0312,2.4194 -2,0.36657 -2,0.29326 -0.0625,-2.78597 -0.0625,-2.78597 -0.90625,5.27868 -0.90625,5.27867 -1.0625,0 -1.0625,0 -0.625,-3.88569 -0.65625,-3.88569 -0.875,5.64525 -0.875,5.57193 -0.6875,-2.27276 c -0.3842,-1.25928 -1.28125,-2.61001 -1.96875,-2.9326 l -1.25,-0.58651 0,2.34607 c 0,1.29034 -0.39655,2.34608 -0.90625,2.34608 l -0.9375,0 -0.46875,-4.10564 -0.4375,-4.10563 -0.125,3.88569 -0.125,3.88569 -1.5,1.31967 -1.5,1.31967 0,-2.34608 0,-2.41939 -1,1.39298 -1,1.4663 0,-3.07923 -0.0312,-3.07922 -0.78125,2.9326 -0.8125,3.0059 -2.1875,-4.83878 -2.1875,-4.76547 0,2.05282 0,2.05281 -1.5,0 -1.5,0 0,-2.05281 0,-2.05282 -1.9375,4.25227 -1.96875,4.25227 -4.03125,-0.51321 -4.0625,-0.51321 0,2.34608 0,2.4194 -1.5,-3.51913 c -0.825,-1.93551 -1.5275,-4.89325 -1.5625,-6.59834 l -0.0625,-3.15254 -0.90625,5.49862 -0.9375,5.42531 -1.0625,-1.61293 -1.09375,-1.53962 -1.9375,4.10564 -1.9375,4.10564 0,-3.95901 0,-4.03232 -1,1.39298 -1,1.4663 0,-4.10563 0,-4.10564 -1.25,3.73906 c -0.6875,2.0337 -1.89865,4.11746 -2.71875,4.69215 l -1.5,1.09973 -1.40625,-3.29917 -1.375,-3.29918 -1.0625,2.49272 -1.0625,2.4927 -1.8125,-3.88569 -1.8125,-3.81238 0,1.75956 0,1.83287 -1.5,-2.93259 -1.5,-2.85928 -0.0312,3.22585 -0.0312,3.15254 -1.21875,-3.66574 c -0.67,-2.04733 -2.2135,-4.99548 -3.4375,-6.52503 l -2.21875,-2.78597 -0.65625,6.52503 -0.6875,6.45171 -1.59375,3.51912 -1.625,3.51912 -3.3125,-0.0732 -3.28125,-0.0732 -0.9375,-3.4458 -0.9375,-3.4458 -0.0312,3.51911 -0.0625,3.51912 -1.46875,-4.54552 -1.46875,-4.54553 0,-5.57194 0,-5.49861 -1,1.39298 -1,1.4663 0,4.54552 0,4.54553 -1,0 -1,0 0,-2.78597 0,-2.78597 -1.1875,2.78597 -1.21875,2.78597 -1.78125,0 -1.8125,0 0,2.34607 0,2.34608 -1.5625,0 -1.5625,0 -1.5,-3.51911 -1.5,-3.51912 -1.9375,0 -1.9375,0 0,-2.34608 0,-2.34607 -1.25,0.58651 c -0.6875,0.32259 -1.8704,2.53368 -2.625,4.91211 l -1.375,4.32557 -2.34375,-1.0264 -2.375,-1.09972 -1.125,3.22585 c -0.6208,1.75501 -1.51925,3.15254 -1.96875,3.15254 l -0.8125,0 -0.375,-8.79779 -0.40625,-8.79779 -0.15625,9.97083 -0.1875,9.97083 -0.75,0.29326 c -0.4125,0.1281 -1.9507,0.49179 -3.4375,0.80647 l -2.71875,0.5132 -0.28125,-11.95034 -0.3125,-11.95033 -1.75,7.55144 -1.75,7.62475 -1.9375,2.41939 -1.9375,2.4194 -1.78125,-7.11155 -1.78125,-7.11155 -1.90625,0.65983 -1.90625,0.58653 -1.875,-8.13796 -1.875,-8.21127 -0.0312,3.51911 -0.0312,3.4458 -1.46875,-4.54552 -1.46875,-4.54553 -0.0312,5.71856 c -0.0248,3.1499 -0.60805,8.76582 -1.28125,12.46355 l -1.21875,6.74497 -1.125,-5.57194 c -0.6111,-3.05255 -1.4956,-8.07381 -2,-11.14386 l -0.9375,-5.57194 -1.375,10.26409 c -0.7571,5.65074 -1.69845,11.15631 -2.09375,12.2436 l -0.71875,1.97949 -1.93749,-2.41938 -1.96876,-2.49271 -1.15625,2.71265 -1.15625,2.71265 0,-4.10563 0,-4.17896 -1.625,3.8857 -1.65625,3.81237 -0.84375,-3.07923 c -0.4617,-1.70827 -0.86325,-5.264 -0.90625,-7.84469 l -0.0937,-4.69216 -1.03125,5.8652 -1.03125,5.86519 -0.84375,-4.69215 -0.8125,-4.69216 -0.0625,5.20536 -0.0937,5.20536 -2.0625,2.63934 c -1.1357,1.42597 -2.9357,2.96493 -4,3.4458 l -1.9375,0.87978 0,-3.29917 0,-3.37249 -1.625,1.53962 -1.65625,1.46629 -1.21875,-3.959 -1.25,-3.95901 -2.5,2.27277 -2.53125,2.19944 -0.59375,-1.39298 -0.625,-1.39299 0,2.71265 0,2.71265 -1.40625,0 -1.40625,0 -0.375,2.71266 -0.40625,2.63934 -1.625,-3.81238 -1.625,-3.81238 -0.5,2.9326 -0.5,2.85929 -0.0625,-3.81238 -0.0937,-3.81238 -2,-1.24635 -2,-1.24636 0,3.44581 0,3.4458 -0.90625,-1.31967 -0.9375,-1.31967 -0.46875,4.10564 -0.4375,4.10563 -0.125,-4.17895 -0.125,-4.25226 -1.09375,1.61292 -1.125,1.61293 -0.875,-3.22585 -0.875,-3.29918 0,2.63934 -0.0312,2.56603 -3.75,-0.58653 -3.75,-0.5132 -0.625,2.41939 -0.65625,2.4194 -1.84375,-1.90619 c -1.018,-1.03805 -2.2125,-1.74443 -2.625,-1.53962 l -0.75,0.36657 -0.125,-7.62474 -0.125,-7.62476 -0.75,8.21127 -0.71875,8.21128 -0.15625,-3.8857 -0.125,-3.959 -1.875,-1.39298 -1.90625,-1.4663 -1.3125,-7.47812 -1.3125,-7.47813 -0.625,5.79188 -0.625,5.79188 -1.1875,-0.58652 -1.15625,-0.58652 0,6.08514 0,6.01183 -1.4375,3.37248 -1.4375,3.37249 -0.78125,-2.9326 -0.8125,-3.00591 -0.65625,-55.13283 c -0.36467,-30.32306 -0.82401,-57.2443 -0.9998,-59.82499 -0.17579,-2.58068 -0.57244,23.28483 -0.875,57.47891 l -0.53125,62.17107 -0.25,-63.784 -0.21875,-63.78399 -1,-1.4663 -1,-1.39298 0,-12.75679 0,-6.08514 -1,0 0,65.98343 c 0,40.00063 -0.225,72.72841 -0.5,72.72841 -0.275,0 -0.5238,-2.3754 -0.5625,-5.27867 l -0.0625,-5.27868 -0.875,4.69216 -0.84375,4.69216 -0.0625,-72.14189 -0.0937,-65.39692 -1,0 z"
       style="fill:#3e3e3e;fill-opacity:1" />
    <rect
       y="212.3662"
       x="-1160.3284"
       height="496.65179"
       width="65.541283"
       id="rect3015"
       style="fill:none;stroke:#ff0000;stroke-width:3;stroke-miterlimit:4;stroke-opacity:1;stroke-dasharray:none;stroke-dashoffset:0" />
    <rect
       style="fill:none;stroke:#ff0000;stroke-width:3;stroke-miterlimit:4;stroke-opacity:1;stroke-dasharray:none;stroke-dashoffset:0"
       id="rect4457"
       width="43.317928"
       height="496.65179"
       x="-886.20648"
       y="212.3662" />
    <rect
       y="212.3662"
       x="-598.20648"
       height="496.65179"
       width="43.317928"
       id="rect5271"
       style="fill:none;stroke:#ff0000;stroke-width:3;stroke-miterlimit:4;stroke-opacity:1;stroke-dasharray:none;stroke-dashoffset:0" />
    <rect
       style="fill:#ffffff;fill-opacity:1;stroke:none"
       id="rect6409"
       width="1703.1172"
       height="143.44165"
       x="-1407.6841"
       y="610.8996" />
    <path
       inkscape:connector-curvature="0"
       id="path3811"
       d="m -1405.2885,1063.3719 0,-681.79466 1585.93948,0"
       style="fill:none;stroke:#000000;stroke-width:3;stroke-linecap:butt;stroke-linejoin:miter;stroke-miterlimit:4;stroke-opacity:1;stroke-dasharray:none;marker-end:none" />
    <text
       sodipodi:linespacing="125%"
       id="text4259"
       y="251.20929"
       x="-25.420118"
       style="font-size:40px;font-style:normal;font-weight:normal;line-height:125%;letter-spacing:0px;word-spacing:0px;fill:#000000;fill-opacity:1;stroke:none;font-family:Sans"
       xml:space="preserve"><tspan
         y="251.20929"
         x="-25.420118"
         id="tspan4261"
         sodipodi:role="line">Time</tspan></text>
    <text
       sodipodi:linespacing="125%"
       id="text4263"
       y="398.17126"
       x="-1674.6769"
       style="font-size:40px;font-style:normal;font-weight:normal;line-height:125%;letter-spacing:0px;word-spacing:0px;fill:#000000;fill-opacity:1;stroke:none;font-family:Sans"
       xml:space="preserve"><tspan
         y="398.17126"
         x="-1674.6769"
         id="tspan4265"
         sodipodi:role="line">Audio Signal</tspan></text>
    <text
       xml:space="preserve"
       style="font-size:40px;font-style:normal;font-weight:normal;line-height:125%;letter-spacing:0px;word-spacing:0px;fill:#000000;fill-opacity:1;stroke:none;font-family:Sans"
       x="-1646.3927"
       y="644.64844"
       id="text4453"
       sodipodi:linespacing="125%"><tspan
         sodipodi:role="line"
         id="tspan4455"
         x="-1646.3927"
         y="644.64844">Hypothesis</tspan></text>
    <path
       style="fill:none;stroke:#000000;stroke-width:3;stroke-linecap:butt;stroke-linejoin:miter;stroke-miterlimit:4;stroke-opacity:1;stroke-dasharray:none;marker-end:none"
       d="m -1404.1357,1063.283 1602.46126,0"
       id="path4459"
       inkscape:connector-curvature="0" />
    <text
       sodipodi:linespacing="125%"
       id="text4461"
       y="1021.826"
       x="-1783.7734"
       style="font-size:40px;font-style:normal;font-weight:normal;line-height:125%;letter-spacing:0px;word-spacing:0px;fill:#000000;fill-opacity:1;stroke:none;font-family:Sans"
       xml:space="preserve"><tspan
         y="1021.826"
         x="-1783.7734"
         id="tspan4463"
         sodipodi:role="line">Outputting results</tspan><tspan
         y="1071.8259"
         x="-1783.7734"
         sodipodi:role="line"
         id="tspan6401">and decoder reset</tspan><tspan
         y="1121.8259"
         x="-1783.7734"
         sodipodi:role="line"
         id="tspan6399" /></text>
    <path
       inkscape:connector-curvature="0"
       id="path4465"
       d="m 12.590338,263.61021 129.299502,0"
       style="fill:none;stroke:#000000;stroke-width:3;stroke-linecap:butt;stroke-linejoin:miter;stroke-miterlimit:4;stroke-opacity:1;stroke-dasharray:none;marker-end:url(#Arrow1Lend)" />
    <rect
       style="fill:#0000ff;fill-opacity:1;stroke:none"
       id="rect6181"
       width="247.73457"
       height="24.909294"
       x="-1405.0156"
       y="613.18842" />
    <rect
       y="645.18842"
       x="-1152.4775"
       height="24.909294"
       width="47.724361"
       id="rect6187"
       style="fill:#ff0000;fill-opacity:1;stroke:none" />
    <rect
       style="fill:#ff0000;fill-opacity:1;stroke:none"
       id="rect6191"
       width="47.724361"
       height="24.909294"
       x="-1098.4775"
       y="645.18842" />
    <rect
       y="677.18842"
       x="-1098.4775"
       height="24.909294"
       width="47.724361"
       id="rect6193"
       style="fill:#0000ff;fill-opacity:1;stroke:none" />
    <rect
       style="fill:#0000ff;fill-opacity:1;stroke:none"
       id="rect6195"
       width="47.724361"
       height="24.909294"
       x="-1152.4775"
       y="613.18842" />
    <rect
       y="613.18842"
       x="-1098.4775"
       height="24.909294"
       width="47.724361"
       id="rect6197"
       style="fill:#0000ff;fill-opacity:1;stroke:none" />
    <rect
       style="fill:#0000ff;fill-opacity:1;stroke:none"
       id="rect6199"
       width="152.78023"
       height="24.909294"
       x="-1044.4775"
       y="613.18842" />
    <rect
       y="645.18842"
       x="-884.47748"
       height="24.909294"
       width="9.867218"
       id="rect6201"
       style="fill:#ff0000;fill-opacity:1;stroke:none" />
    <rect
       style="fill:#0000ff;fill-opacity:1;stroke:none"
       id="rect6205"
       width="9.867218"
       height="24.909294"
       x="-884.47748"
       y="613.18842" />
    <rect
       style="fill:#ff0000;fill-opacity:1;stroke:none"
       id="rect6207"
       width="9.867218"
       height="24.909294"
       x="-870.47748"
       y="645.18842" />
    <rect
       y="613.18842"
       x="-870.47748"
       height="24.909294"
       width="9.867218"
       id="rect6209"
       style="fill:#0000ff;fill-opacity:1;stroke:none" />
    <rect
       y="707.18842"
       x="-870.47748"
       height="24.909294"
       width="9.867218"
       id="rect6211"
       style="fill:#ff0000;fill-opacity:1;stroke:none" />
    <rect
       style="fill:#0000ff;fill-opacity:1;stroke:none"
       id="rect6213"
       width="9.867218"
       height="24.909294"
       x="-870.47748"
       y="675.18842" />
    <rect
       y="645.18842"
       x="-856.47748"
       height="24.909294"
       width="9.867218"
       id="rect6215"
       style="fill:#ff0000;fill-opacity:1;stroke:none" />
    <rect
       style="fill:#0000ff;fill-opacity:1;stroke:none"
       id="rect6217"
       width="9.867218"
       height="24.909294"
       x="-856.47748"
       y="613.18842" />
    <rect
       style="fill:#ff0000;fill-opacity:1;stroke:none"
       id="rect6219"
       width="9.867218"
       height="24.909294"
       x="-856.47748"
       y="707.18842" />
    <rect
       y="675.18842"
       x="-856.47748"
       height="24.909294"
       width="9.867218"
       id="rect6221"
       style="fill:#0000ff;fill-opacity:1;stroke:none" />
    <rect
       y="769.18842"
       x="-856.47748"
       height="24.909294"
       width="9.867218"
       id="rect6223"
       style="fill:#ff0000;fill-opacity:1;stroke:none" />
    <rect
       style="fill:#0000ff;fill-opacity:1;stroke:none"
       id="rect6225"
       width="9.867218"
       height="24.909294"
       x="-856.47748"
       y="737.18842" />
    <rect
       style="fill:#ff0000;fill-opacity:1;stroke:none"
       id="rect6227"
       width="47.242863"
       height="24.909294"
       x="-842.47742"
       y="645.18842" />
    <rect
       y="613.18842"
       x="-842.47742"
       height="24.909294"
       width="47.242863"
       id="rect6229"
       style="fill:#0000ff;fill-opacity:1;stroke:none" />
    <rect
       y="707.18842"
       x="-842.47742"
       height="24.909294"
       width="47.242863"
       id="rect6231"
       style="fill:#ff0000;fill-opacity:1;stroke:none" />
    <rect
       style="fill:#0000ff;fill-opacity:1;stroke:none"
       id="rect6233"
       width="47.242863"
       height="24.909294"
       x="-842.47742"
       y="675.18842" />
    <rect
       style="fill:#ff0000;fill-opacity:1;stroke:none"
       id="rect6235"
       width="47.242863"
       height="24.909294"
       x="-842.47742"
       y="769.18842" />
    <rect
       y="737.18842"
       x="-842.47742"
       height="24.909294"
       width="47.242863"
       id="rect6237"
       style="fill:#0000ff;fill-opacity:1;stroke:none" />
    <rect
       style="fill:#0000ff;fill-opacity:1;stroke:none"
       id="rect6239"
       width="47.724361"
       height="24.909294"
       x="-842.90894"
       y="798.40674" />
    <rect
       style="fill:#0000ff;fill-opacity:1;stroke:none"
       id="rect6241"
       width="187.65407"
       height="24.909294"
       x="-788.47742"
       y="613.18842" />
    <rect
       style="fill:#ff0000;fill-opacity:1;stroke:none"
       id="rect6243"
       width="14.887335"
       height="24.909294"
       x="-594.47748"
       y="645.18842" />
    <rect
       y="613.18842"
       x="-594.47748"
       height="24.909294"
       width="14.887335"
       id="rect6245"
       style="fill:#0000ff;fill-opacity:1;stroke:none" />
    <rect
       y="645.18842"
       x="-573.35474"
       height="24.909294"
       width="14.887335"
       id="rect6247"
       style="fill:#ff0000;fill-opacity:1;stroke:none" />
    <rect
       style="fill:#0000ff;fill-opacity:1;stroke:none"
       id="rect6249"
       width="14.887335"
       height="24.909294"
       x="-573.35474"
       y="613.18842" />
    <rect
       style="fill:#ff0000;fill-opacity:1;stroke:none"
       id="rect6251"
       width="14.887335"
       height="24.909294"
       x="-573.35474"
       y="707.18842" />
    <rect
       y="675.18842"
       x="-573.35474"
       height="24.909294"
       width="14.887335"
       id="rect6253"
       style="fill:#0000ff;fill-opacity:1;stroke:none" />
    <rect
       y="645.18842"
       x="-552.47742"
       height="24.909294"
       width="47.242863"
       id="rect6267"
       style="fill:#ff0000;fill-opacity:1;stroke:none" />
    <rect
       style="fill:#0000ff;fill-opacity:1;stroke:none"
       id="rect6269"
       width="47.242863"
       height="24.909294"
       x="-552.47742"
       y="613.18842" />
    <rect
       style="fill:#ff0000;fill-opacity:1;stroke:none"
       id="rect6271"
       width="47.242863"
       height="24.909294"
       x="-552.47742"
       y="707.18842" />
    <rect
       y="675.18842"
       x="-552.47742"
       height="24.909294"
       width="47.242863"
       id="rect6273"
       style="fill:#0000ff;fill-opacity:1;stroke:none" />
    <rect
       style="fill:#0000ff;fill-opacity:1;stroke:none"
       id="rect6277"
       width="47.242863"
       height="24.909294"
       x="-552.47742"
       y="737.18842" />
    <rect
       y="613.18842"
       x="-500.47745"
       height="24.909294"
       width="247.25308"
       id="rect6281"
       style="fill:#0000ff;fill-opacity:1;stroke:none" />
    <rect
       style="fill:#ff0000;fill-opacity:1;stroke:none"
       id="rect6283"
       width="4.419497"
       height="24.909294"
       x="-248.47748"
       y="645.18842" />
    <rect
       y="613.18842"
       x="-248.47748"
       height="24.909294"
       width="4.419497"
       id="rect6285"
       style="fill:#0000ff;fill-opacity:1;stroke:none" />
    <rect
       y="645.18842"
       x="-242.20692"
       height="24.909294"
       width="4.419497"
       id="rect6287"
       style="fill:#ff0000;fill-opacity:1;stroke:none" />
    <rect
       style="fill:#0000ff;fill-opacity:1;stroke:none"
       id="rect6289"
       width="4.419497"
       height="24.909294"
       x="-242.20692"
       y="613.18842" />
    <rect
       style="fill:#ff0000;fill-opacity:1;stroke:none"
       id="rect6291"
       width="4.419497"
       height="24.909294"
       x="-242.20692"
       y="707.18842" />
    <rect
       y="675.18842"
       x="-242.20692"
       height="24.909294"
       width="4.419497"
       id="rect6293"
       style="fill:#0000ff;fill-opacity:1;stroke:none" />
    <rect
       style="fill:#ff0000;fill-opacity:1;stroke:none"
       id="rect6295"
       width="4.419497"
       height="24.909294"
       x="-235.93636"
       y="645.18842" />
    <rect
       y="613.18842"
       x="-235.93636"
       height="24.909294"
       width="4.419497"
       id="rect6297"
       style="fill:#0000ff;fill-opacity:1;stroke:none" />
    <rect
       y="707.18842"
       x="-235.93636"
       height="24.909294"
       width="4.419497"
       id="rect6299"
       style="fill:#ff0000;fill-opacity:1;stroke:none" />
    <rect
       style="fill:#0000ff;fill-opacity:1;stroke:none"
       id="rect6301"
       width="4.419497"
       height="24.909294"
       x="-235.93636"
       y="675.18842" />
    <rect
       style="fill:#ff0000;fill-opacity:1;stroke:none"
       id="rect6303"
       width="4.419497"
       height="24.909294"
       x="-235.93636"
       y="769.18842" />
    <rect
       y="737.18842"
       x="-235.93636"
       height="24.909294"
       width="4.419497"
       id="rect6305"
       style="fill:#0000ff;fill-opacity:1;stroke:none" />
    <rect
       y="645.18842"
       x="-229.6658"
       height="24.909294"
       width="4.419497"
       id="rect6333"
       style="fill:#ff0000;fill-opacity:1;stroke:none" />
    <rect
       style="fill:#0000ff;fill-opacity:1;stroke:none"
       id="rect6335"
       width="4.419497"
       height="24.909294"
       x="-229.6658"
       y="613.18842" />
    <rect
       style="fill:#ff0000;fill-opacity:1;stroke:none"
       id="rect6337"
       width="4.419497"
       height="24.909294"
       x="-229.6658"
       y="707.18842" />
    <rect
       y="675.18842"
       x="-229.6658"
       height="24.909294"
       width="4.419497"
       id="rect6339"
       style="fill:#0000ff;fill-opacity:1;stroke:none" />
    <rect
       y="769.18842"
       x="-229.6658"
       height="24.909294"
       width="4.419497"
       id="rect6341"
       style="fill:#ff0000;fill-opacity:1;stroke:none" />
    <rect
       style="fill:#0000ff;fill-opacity:1;stroke:none"
       id="rect6343"
       width="4.419497"
       height="24.909294"
       x="-229.6658"
       y="737.18842" />
    <rect
       style="fill:#ff0000;fill-opacity:1;stroke:none"
       id="rect6345"
       width="4.419497"
       height="24.909294"
       x="-229.6658"
       y="831.18842" />
    <rect
       y="799.18842"
       x="-229.6658"
       height="24.909294"
       width="4.419497"
       id="rect6347"
       style="fill:#0000ff;fill-opacity:1;stroke:none" />
    <rect
       style="fill:#ff0000;fill-opacity:1;stroke:none"
       id="rect6349"
       width="4.419497"
       height="24.909294"
       x="-223.39525"
       y="645.18842" />
    <rect
       y="613.18842"
       x="-223.39525"
       height="24.909294"
       width="4.419497"
       id="rect6351"
       style="fill:#0000ff;fill-opacity:1;stroke:none" />
    <rect
       y="707.18842"
       x="-223.39525"
       height="24.909294"
       width="4.419497"
       id="rect6353"
       style="fill:#ff0000;fill-opacity:1;stroke:none" />
    <rect
       style="fill:#0000ff;fill-opacity:1;stroke:none"
       id="rect6355"
       width="4.419497"
       height="24.909294"
       x="-223.39525"
       y="675.18842" />
    <rect
       style="fill:#ff0000;fill-opacity:1;stroke:none"
       id="rect6357"
       width="4.419497"
       height="24.909294"
       x="-223.39525"
       y="769.18842" />
    <rect
       y="737.18842"
       x="-223.39525"
       height="24.909294"
       width="4.419497"
       id="rect6359"
       style="fill:#0000ff;fill-opacity:1;stroke:none" />
    <rect
       y="831.18842"
       x="-223.39525"
       height="24.909294"
       width="4.419497"
       id="rect6361"
       style="fill:#ff0000;fill-opacity:1;stroke:none" />
    <rect
       style="fill:#0000ff;fill-opacity:1;stroke:none"
       id="rect6363"
       width="4.419497"
       height="24.909294"
       x="-223.39525"
       y="799.18842" />
    <rect
       style="fill:#ff0000;fill-opacity:1;stroke:none"
       id="rect6365"
       width="4.419497"
       height="24.909294"
       x="-223.39525"
       y="891.18842" />
    <rect
       y="861.18842"
       x="-223.39525"
       height="24.909294"
       width="4.419497"
       id="rect6367"
       style="fill:#0000ff;fill-opacity:1;stroke:none" />
    <rect
       style="fill:#ff0000;fill-opacity:1;stroke:none"
       id="rect6369"
       width="47.242863"
       height="24.909294"
       x="-216.47742"
       y="645.18842" />
    <rect
       y="613.18842"
       x="-216.47742"
       height="24.909294"
       width="47.242863"
       id="rect6371"
       style="fill:#0000ff;fill-opacity:1;stroke:none" />
    <rect
       y="707.18842"
       x="-216.47742"
       height="24.909294"
       width="47.242863"
       id="rect6373"
       style="fill:#ff0000;fill-opacity:1;stroke:none" />
    <rect
       style="fill:#0000ff;fill-opacity:1;stroke:none"
       id="rect6375"
       width="47.242863"
       height="24.909294"
       x="-216.47742"
       y="675.18842" />
    <rect
       y="737.18842"
       x="-216.47742"
       height="24.909294"
       width="47.242863"
       id="rect6377"
       style="fill:#0000ff;fill-opacity:1;stroke:none" />
    <rect
       y="769.18842"
       x="-216.47742"
       height="24.909294"
       width="47.242863"
       id="rect6379"
       style="fill:#ff0000;fill-opacity:1;stroke:none" />
    <rect
       style="fill:#ff0000;fill-opacity:1;stroke:none"
       id="rect6383"
       width="47.242863"
       height="24.909294"
       x="-216.47742"
       y="831.18842" />
    <rect
       y="799.18842"
       x="-216.47742"
       height="24.909294"
       width="47.242863"
       id="rect6385"
       style="fill:#0000ff;fill-opacity:1;stroke:none" />
    <rect
       style="fill:#0000ff;fill-opacity:1;stroke:none"
       id="rect6387"
       width="47.242863"
       height="24.909294"
       x="-216.47742"
       y="861.18842" />
    <rect
       y="891.18842"
       x="-216.47742"
       height="24.909294"
       width="47.242863"
       id="rect6389"
       style="fill:#ff0000;fill-opacity:1;stroke:none" />
    <rect
       y="921.18842"
       x="-216.47742"
       height="24.909294"
       width="47.242863"
       id="rect6391"
       style="fill:#0000ff;fill-opacity:1;stroke:none" />
    <rect
       style="fill:#0000ff;fill-opacity:1;stroke:none"
       id="rect6393"
       width="284.39594"
       height="24.909294"
       x="-164.47745"
       y="613.18842" />
    <rect
       style="fill:#000000;fill-opacity:1;stroke:none"
       id="rect6397"
       width="9.3385649"
       height="311.7926"
       x="-1060.0918"
       y="750.30511" />
    <rect
       y="853.3407"
       x="-804.0918"
       height="208.75705"
       width="9.3385649"
       id="rect6403"
       style="fill:#000000;fill-opacity:1;stroke:none" />
    <rect
       style="fill:#000000;fill-opacity:1;stroke:none"
       id="rect6405"
       width="9.3385649"
       height="281.48804"
       x="-516.0918"
       y="780.60974" />
    <rect
       y="966.47784"
       x="-176.0918"
       height="95.619972"
       width="9.3385649"
       id="rect6407"
       style="fill:#000000;fill-opacity:1;stroke:none" />
  </g>
</svg>
